<svg xmlns="http://www.w3.org/2000/svg" viewBox="0 0 411.34 89.12"><title>Asset 1</title><path d="M28.24,22.23a5,5,0,1,0,5,5,5,5,0,0,0-5-5" style="fill:#ffffff"/><path d="M16.1,39.53a5,5,0,1,1-5,5,5,5,0,0,1,5-5" style="fill:#ffffff"/><path d="M28.24,66.89a5,5,0,1,1,5-5,5,5,0,0,1-5,5" style="fill:#ffffff"/><path d="M16.1,29.14a3.36,3.36,0,1,0,3.36,3.36,3.37,3.37,0,0,0-3.36-3.36" style="fill:#ffffff"/><path d="M3.36,41.2A3.36,3.36,0,1,1,0,44.56,3.36,3.36,0,0,1,3.36,41.2" style="fill:#ffffff"/><path d="M16.1,60a3.36,3.36,0,1,1,3.36-3.36A3.35,3.35,0,0,1,16.1,60" style="fill:#ffffff"/><path d="M34.65,35.43a9.14,9.14,0,1,1-9.14,9.13,9.14,9.14,0,0,1,9.14-9.13" style="fill:#ffffff"/><path d="M45.36,11.26a9.13,9.13,0,1,1-9.14,9.13,9.13,9.13,0,0,1,9.14-9.13" style="fill:#ffffff"/><path d="M45.36,77.87a9.14,9.14,0,1,0-9.14-9.14,9.14,9.14,0,0,0,9.14,9.14" style="fill:#ffffff"/><path d="M102.73,35.43a9.14,9.14,0,1,1-9.14,9.13,9.13,9.13,0,0,1,9.14-9.13" style="fill:#ffffff"/><path d="M82.89,68.73A9.14,9.14,0,1,1,92,77.87a9.14,9.14,0,0,1-9.14-9.14" style="fill:#ffffff"/><path d="M82.89,20.4A9.14,9.14,0,1,0,92,11.26a9.14,9.14,0,0,0-9.14,9.14" style="fill:#ffffff"/><path d="M77.54,9.14A9.13,9.13,0,1,1,68.41,0a9.13,9.13,0,0,1,9.13,9.14" style="fill:#ffffff"/><path d="M84.17,39.53a5,5,0,1,1-5,5,5,5,0,0,1,5-5" style="fill:#ffffff"/><path d="M77.54,80a9.13,9.13,0,1,0-9.13,9.13A9.14,9.14,0,0,0,77.54,80" style="fill:#ffffff"/><path d="M74.92,66.89a5,5,0,1,1,5-5,5,5,0,0,1-5,5" style="fill:#ffffff"/><path d="M74.92,22.24a5,5,0,1,0,5,5,5,5,0,0,0-5-5" style="fill:#ffffff"/><path d="M72.82,41.2a3.36,3.36,0,1,1-3.36,3.36,3.37,3.37,0,0,1,3.36-3.36" style="fill:#ffffff"/><path d="M64.15,61.37A3.37,3.37,0,1,1,67.51,58a3.38,3.38,0,0,1-3.36,3.36" style="fill:#ffffff"/><path d="M64.15,27.76a3.36,3.36,0,1,0,3.36,3.36,3.37,3.37,0,0,0-3.36-3.36" style="fill:#ffffff"/><path d="M147,25.65l-9.29,21.67h13Zm7.22,41.67-1.89-11H134l-4.77,11H119.08l23.17-51h13.06l9.83,51Z" style="fill:#ffffff"/><polygon points="180.64 67.32 169.78 67.32 176.67 14.32 187.53 14.32 180.64 67.32" style="fill:#ffffff"/><polygon points="199.77 67.32 188.91 67.32 195.8 14.32 206.66 14.32 199.77 67.32" style="fill:#ffffff"/><path d="M228.61,35.41c-2.82,0-7.91,2.06-9.08,10.58a41.2,41.2,0,0,0,8.56-1.34c2.3-.72,5-2.21,5-5.24,0-2.42-1.69-4-4.52-4M235,50c-4.29,2.09-10.25,3.11-15.74,3.19,0,3.31,2.18,6.46,7.39,6.46a18.54,18.54,0,0,0,10.77-4.08L241.2,62c-3.27,3.39-9.12,6-16.59,6s-16-4-16-17.23S217.87,28,229,28c10.16,0,14.24,5.29,14.24,11.06S239.3,48,235,50" style="fill:#ffffff"/><path d="M272.84,39.69a9.15,9.15,0,0,0-3.74-.76,7.52,7.52,0,0,0-5.51,2.37,17.38,17.38,0,0,0-3.82,6.31l-2.53,19.71H246.46l4.95-38h9.93v6c2-4,5.63-6.84,9.57-6.84,3.3,0,4.38,1.21,4.38,1.21Z" style="fill: #ffffff"/><path d="M295.11,36.54c-6.33,0-9.56,6.66-9.56,12.52,0,5,2.42,8,6.38,8,6.41,0,9.52-6.66,9.52-12.55,0-5-2.58-8-6.34-8m15.18,24.38c-.69,5.53-1.74,10.53-5.65,14.65s-9.36,5.89-16.14,5.89c-6.58,0-13.16-2.95-15.78-5.21l4.4-7.26a20.87,20.87,0,0,0,11.46,4c3.79,0,6.18-1,7.79-2.82s2.3-4,2.9-7.75l.37-2.22a13.38,13.38,0,0,1-11.22,5.89c-7,0-13.84-4.15-13.84-15.58S281.92,28.43,293,28.43c7.86,0,10,5.65,10,5.65l1.45-4.76h10Z" style="fill:#ffffff"/><path d="M338.78,36.54c-5.61,0-9.45,6.5-9.45,14,0,5.33,2.3,8.75,6.34,8.75,5.61,0,9.44-6.49,9.44-14,0-5.28-2.34-8.72-6.33-8.72m14.53,30.78h-10V62.13A13.57,13.57,0,0,1,332,68.2c-8,0-13.35-5.83-13.35-16.61,0-11.94,7.12-23.16,18.5-23.16,7.63,0,9.69,5.91,9.69,5.91l1.4-5h10Z" style="fill:#ffffff"/><path d="M398.61,45.2l-2.85,22.12H385L387.92,45a16.54,16.54,0,0,0,.16-1.85c0-3.46-1.61-5.31-4.9-5.31-3.83,0-6.64,3.54-8,6.8l-3,22.68H361.46l5-38h9.93v5.22a14.4,14.4,0,0,1,12.18-6.11c6.92,0,10.62,4.18,10.62,10.22a54.28,54.28,0,0,1-.53,6.55" style="fill:#ffffff"/><polygon points="405.34 63.32 403.34 63.32 403.34 64.32 406.34 64.32 406.34 63.32 404.34 63.32 404.34 67.32 405.34 67.32 405.34 63.32" style="fill:#ffffff"/><polygon points="406.34 63.32 408.17 63.32 409.12 66.32 409.13 66.32 410.07 63.32 411.34 63.32 411.34 67.32 410.34 67.32 410.34 64.32 410.16 64.32 409.09 67.32 408.33 67.32 407.26 63.77 407.34 63.78 407.34 67.32 406.34 67.32 406.34 63.32" style="fill:#ffffff"/></svg>