<svg xmlns="http://www.w3.org/2000/svg" viewBox="0 0 1439.33 1373.65"><title>Asset 3</title><path d="M2.27,947.24,0,948.55V943.6a9.51,9.51,0,0,0,.76,1.7,9,9,0,0,0,1.51,1.94m954.14-613a4.95,4.95,0,1,0-6.76-1.81,5,5,0,0,0,6.76,1.81m-15.19-26.31a2.83,2.83,0,1,0-3.86-1,2.85,2.85,0,0,0,3.86,1m33.55,15.71a4.95,4.95,0,1,0-6.76-1.81,5,5,0,0,0,6.76,1.81m-15.19-26.31a2.83,2.83,0,1,0-3.86-1,2.82,2.82,0,0,0,3.86,1M993.13,313a4.95,4.95,0,1,0-6.76-1.81,5,5,0,0,0,6.76,1.81m-15.2-26.31a2.83,2.83,0,1,0-3.85-1,2.82,2.82,0,0,0,3.85,1m33.55,15.72a4.95,4.95,0,1,0-6.75-1.82,5,5,0,0,0,6.75,1.82m-15.19-26.32a2.83,2.83,0,1,0-3.86-1,2.83,2.83,0,0,0,3.86,1m33.55,15.72a4.95,4.95,0,1,0-6.75-1.82,5,5,0,0,0,6.75,1.82m-15.19-26.32a2.83,2.83,0,1,0-3.87-1,2.83,2.83,0,0,0,3.87,1m33.55,15.72a4.95,4.95,0,1,0-6.76-1.82,5,5,0,0,0,6.76,1.82M1033,254.92a2.83,2.83,0,1,0-3.87-1,2.82,2.82,0,0,0,3.87,1m33.55,15.72a4.95,4.95,0,1,0-6.76-1.82,5,5,0,0,0,6.76,1.82m-15.19-26.31a2.83,2.83,0,1,0-3.87-1,2.84,2.84,0,0,0,3.87,1M1084.91,260a4.95,4.95,0,1,0-6.76-1.82,4.94,4.94,0,0,0,6.76,1.82m-15.19-26.31a2.83,2.83,0,1,0-3.86-1,2.84,2.84,0,0,0,3.86,1m33.55,15.71a4.95,4.95,0,1,0-6.76-1.81,4.94,4.94,0,0,0,6.76,1.81m-15.19-26.31a2.83,2.83,0,1,0-3.86-1,2.83,2.83,0,0,0,3.86,1m33.55,15.71a4.94,4.94,0,1,0-6.76-1.81,4.95,4.95,0,0,0,6.76,1.81m-15.2-26.31a2.83,2.83,0,1,0-3.86-1,2.82,2.82,0,0,0,3.86,1M1140,228.24a4.94,4.94,0,1,0-6.76-1.81,4.93,4.93,0,0,0,6.76,1.81m-15.19-26.31a2.83,2.83,0,1,0-3.86-1,2.83,2.83,0,0,0,3.86,1m33.55,15.71a4.94,4.94,0,1,0-6.76-1.81,4.93,4.93,0,0,0,6.76,1.81m-15.19-26.31a2.83,2.83,0,1,0-3.86-1,2.82,2.82,0,0,0,3.86,1M1176.7,207a4.94,4.94,0,1,0-6.76-1.81,4.94,4.94,0,0,0,6.76,1.81m-15.2-26.31a2.82,2.82,0,1,0-3.85-1,2.82,2.82,0,0,0,3.85,1m33.55,15.71a4.94,4.94,0,1,0-6.75-1.81,4.94,4.94,0,0,0,6.75,1.81m-15.19-26.31a2.82,2.82,0,1,0-3.86-1,2.82,2.82,0,0,0,3.86,1m33.55,15.71a4.94,4.94,0,1,0-6.75-1.8,4.93,4.93,0,0,0,6.75,1.8m-15.19-26.31a2.82,2.82,0,1,0-3.86-1,2.81,2.81,0,0,0,3.86,1m33.55,15.72a4.95,4.95,0,1,0-6.76-1.81,5,5,0,0,0,6.76,1.81m-15.19-26.31a2.83,2.83,0,1,0-3.86-1,2.83,2.83,0,0,0,3.86,1m33.55,15.71a4.95,4.95,0,1,0-6.76-1.81,4.94,4.94,0,0,0,6.76,1.81m-15.19-26.31a2.83,2.83,0,1,0-3.86-1,2.83,2.83,0,0,0,3.86,1m33.54,15.71a4.95,4.95,0,1,0-6.75-1.81,4.95,4.95,0,0,0,6.75,1.81m-15.19-26.31a2.83,2.83,0,1,0-3.85-1,2.82,2.82,0,0,0,3.85,1m33.55,15.71a4.94,4.94,0,1,0-6.75-1.81,4.93,4.93,0,0,0,6.75,1.81m-15.19-26.31a2.82,2.82,0,1,0-3.86-1,2.83,2.83,0,0,0,3.86,1m33.55,15.71a4.94,4.94,0,1,0-6.76-1.81,4.95,4.95,0,0,0,6.76,1.81M1290,106.54a2.82,2.82,0,1,0-3.86-1,2.84,2.84,0,0,0,3.86,1m33.55,15.71a4.94,4.94,0,1,0-6.76-1.8,4.95,4.95,0,0,0,6.76,1.8m-15.19-26.31a2.82,2.82,0,1,0-3.86-1,2.82,2.82,0,0,0,3.86,1m33.55,15.72a4.95,4.95,0,1,0-6.76-1.81,5,5,0,0,0,6.76,1.81m-15.2-26.32a2.82,2.82,0,1,0-3.86-1,2.81,2.81,0,0,0,3.86,1m33.55,15.72a4.95,4.95,0,1,0-6.75-1.81,5,5,0,0,0,6.75,1.81m-15.19-26.32a2.82,2.82,0,1,0-3.86-1,2.82,2.82,0,0,0,3.86,1m33.55,15.72a4.95,4.95,0,1,0-6.75-1.81,5,5,0,0,0,6.75,1.81m-15.19-26.32a2.82,2.82,0,1,0-3.87-1,2.81,2.81,0,0,0,3.87,1M1397,79.86a4.95,4.95,0,1,0-6.76-1.81,5,5,0,0,0,6.76,1.81M1381.8,53.55a2.82,2.82,0,1,0-3.87-1,2.83,2.83,0,0,0,3.87,1m33.55,15.71a4.95,4.95,0,1,0-6.76-1.81,4.95,4.95,0,0,0,6.76,1.81M1400.16,43a2.82,2.82,0,1,0-3.87-1,2.84,2.84,0,0,0,3.87,1m33.54,15.71a4.95,4.95,0,1,0-6.76-1.8,4.93,4.93,0,0,0,6.76,1.8m-15.19-26.31a2.82,2.82,0,1,0-3.86-1,2.83,2.83,0,0,0,3.86,1m18.36-10.6a2.82,2.82,0,1,0-3.86-1,2.83,2.83,0,0,0,3.86,1M962,358a7.07,7.07,0,1,0,2.58-9.65A7.06,7.06,0,0,0,962,358m18.36-10.59a7.06,7.06,0,1,0,2.58-9.65,7.07,7.07,0,0,0-2.58,9.65m18.35-10.6a7.07,7.07,0,1,0,2.59-9.65,7.07,7.07,0,0,0-2.59,9.65m18.36-10.6a7.07,7.07,0,1,0,2.59-9.65,7.06,7.06,0,0,0-2.59,9.65m18.36-10.6a7.07,7.07,0,1,0,2.59-9.65,7.06,7.06,0,0,0-2.59,9.65m18.36-10.6a7.07,7.07,0,1,0,2.58-9.65,7.06,7.06,0,0,0-2.58,9.65m18.35-10.6a7.07,7.07,0,1,0,2.59-9.65,7.08,7.08,0,0,0-2.59,9.65m18.36-10.59a7.07,7.07,0,1,0,2.59-9.66,7.07,7.07,0,0,0-2.59,9.66m18.36-10.6a7.07,7.07,0,1,0,2.59-9.66,7.06,7.06,0,0,0-2.59,9.66m18.36-10.6a7.07,7.07,0,1,0,2.58-9.66,7.06,7.06,0,0,0-2.58,9.66m18.36-10.6a7.06,7.06,0,1,0,2.58-9.66,7.06,7.06,0,0,0-2.58,9.66m18.35-10.6a7.07,7.07,0,1,0,2.59-9.66,7.07,7.07,0,0,0-2.59,9.66m18.36-10.6a7.06,7.06,0,1,0,2.59-9.66,7.05,7.05,0,0,0-2.59,9.66m18.35-10.6a7.07,7.07,0,1,0,2.59-9.65,7.07,7.07,0,0,0-2.59,9.65m18.36-10.6a7.07,7.07,0,1,0,2.59-9.65,7.07,7.07,0,0,0-2.59,9.65m18.36-10.6a7.07,7.07,0,1,0,2.58-9.65,7.06,7.06,0,0,0-2.58,9.65m18.36-10.59a7.06,7.06,0,1,0,2.58-9.66,7.06,7.06,0,0,0-2.58,9.66m18.35-10.6a7.07,7.07,0,1,0,2.59-9.66,7.07,7.07,0,0,0-2.59,9.66m18.36-10.6a7.07,7.07,0,1,0,2.59-9.66,7.05,7.05,0,0,0-2.59,9.66m18.36-10.6a7.07,7.07,0,1,0,2.58-9.65,7.06,7.06,0,0,0-2.58,9.65M1329.1,146a7.06,7.06,0,1,0,2.58-9.65,7.06,7.06,0,0,0-2.58,9.65m18.35-10.6a7.07,7.07,0,1,0,2.59-9.65,7.08,7.08,0,0,0-2.59,9.65m18.36-10.6a7.07,7.07,0,1,0,2.59-9.65,7.06,7.06,0,0,0-2.59,9.65m18.36-10.6a7.07,7.07,0,1,0,2.59-9.65,7.06,7.06,0,0,0-2.59,9.65m18.36-10.6a7.07,7.07,0,1,0,2.58-9.65,7.06,7.06,0,0,0-2.58,9.65M1420.88,93a7.07,7.07,0,1,0,2.59-9.65,7.09,7.09,0,0,0-2.59,9.65M1439.33,81V76.23a7.11,7.11,0,0,0,0,5.25M.76,945.06A8.78,8.78,0,0,0,2.27,947L0,948.32v425.33H1437.67v-1269a8.94,8.94,0,0,0-5,3.35,9.6,9.6,0,0,0-1.72,7.87,9,9,0,0,0,2.49,4.44l-2.75,1.58c-.82-3.16-3.37-6.2-8.56-6.78a7.92,7.92,0,0,0-3.68.41,9.36,9.36,0,0,0-4.87,13.45,9,9,0,0,0,1.51,1.94l-2.75,1.58a9.14,9.14,0,0,0-3.2-4.89,9.46,9.46,0,0,0-9.42-1.33,9.31,9.31,0,0,0-3,15.24l-2.75,1.58a9.21,9.21,0,0,0-.93-2.27,9.34,9.34,0,1,0-16.18,9.35,10.29,10.29,0,0,0,1.51,1.94l-2.74,1.58a9.09,9.09,0,0,0-.94-2.27,9.34,9.34,0,1,0-16.17,9.35,9.5,9.5,0,0,0,1.5,1.93l-2.74,1.59a9.34,9.34,0,1,0-17.11,7.07,9.65,9.65,0,0,0,1.5,1.94l-2.74,1.59a8.84,8.84,0,0,0-5.31-6,9.25,9.25,0,0,0-10.29,15l-2.75,1.58c-.83-3.12-3.25-6.14-8.61-6.74a8,8,0,0,0-3.84.45A9.33,9.33,0,0,0,1305,194.5l-2.75,1.58a9.08,9.08,0,0,0-3.2-4.88,9.33,9.33,0,0,0-13.9,12,9.3,9.3,0,0,0,1.5,1.94l-2.75,1.58a9,9,0,0,0-3.25-4.92,9.46,9.46,0,0,0-9.42-1.28,9.35,9.35,0,0,0-4.43,13.28,9.57,9.57,0,0,0,1.5,1.94l-2.74,1.58a9.87,9.87,0,0,0-.93-2.27,9.39,9.39,0,0,0-15.64-.91,7.81,7.81,0,0,0-1.58,3.59,9.36,9.36,0,0,0,2.54,8.6l-2.74,1.59a9.44,9.44,0,0,0-.93-2.27,9.34,9.34,0,1,0-14.68,11.28l-2.74,1.59c-.72-2.72-2.53-5.27-6.92-6.47a8.78,8.78,0,0,0-5.75.26,9.36,9.36,0,0,0-4.44,13.28,9.73,9.73,0,0,0,1.5,1.94l-2.74,1.59c-.76-2.86-2.75-5.62-7.67-6.56a8.67,8.67,0,0,0-5.55.62,9.33,9.33,0,0,0-3.88,13,9,9,0,0,0,1.5,1.94l-2.75,1.59c-.76-2.86-2.74-5.62-7.71-6.56a8.65,8.65,0,0,0-5.5.61,9.35,9.35,0,0,0-3.89,13,9,9,0,0,0,1.5,1.94l-2.75,1.59a9.09,9.09,0,0,0-.92-2.28,9.34,9.34,0,1,0-14.68,11.29l-2.74,1.59a9.34,9.34,0,1,0-15.6,9l-2.75,1.59a9.26,9.26,0,0,0-2-3.81A9.34,9.34,0,0,0,1120,298.54a9.08,9.08,0,0,0,1.51,1.94l-2.75,1.6c-.72-2.7-2.49-5.23-6.78-6.46a8.72,8.72,0,0,0-5.73.18,9.3,9.3,0,0,0-3.09,15.28l-2.75,1.59c-.77-2.87-2.77-5.65-7.78-6.56a8.6,8.6,0,0,0-5.48.64,9.33,9.33,0,0,0-3.84,13,9,9,0,0,0,1.5,1.94l-2.74,1.59a9.12,9.12,0,0,0-3.27-4.94,9.44,9.44,0,0,0-9.43-1.25,9.35,9.35,0,0,0-4.41,13.26,9,9,0,0,0,1.5,1.94l-2.74,1.59a9.68,9.68,0,0,0-.93-2.28,9.34,9.34,0,0,0-16.18,9.35,9,9,0,0,0,1.51,1.94l-2.75,1.59a9.68,9.68,0,0,0-.93-2.28,9.34,9.34,0,0,0-16.18,9.35,9,9,0,0,0,1.51,1.94l-2.75,1.59a9.34,9.34,0,1,0-17.11,7.06,9.15,9.15,0,0,0,1.51,1.95l-2.74,1.59a9.06,9.06,0,0,0-6.36-6.44,8.82,8.82,0,0,0-5.33-.13,9.36,9.36,0,0,0-5.43,13.63,9.48,9.48,0,0,0,1.51,1.95l-2.74,1.58c-.84-3.13-3.26-6.14-8.61-6.74a7.87,7.87,0,0,0-3.85.45,9.34,9.34,0,0,0-4.65,13.36,9.44,9.44,0,0,0,1.5,1.95L972,386.86c-.84-3.11-3.23-6.11-8.52-6.75a8,8,0,0,0-3.82.41,9.35,9.35,0,0,0-4.77,13.41,9.8,9.8,0,0,0,1.5,1.95l-2.74,1.58a9,9,0,0,0-3.24-4.91,9.44,9.44,0,0,0-9.42-1.3,9.34,9.34,0,0,0-4.44,13.28,9.63,9.63,0,0,0,1.5,2l-2.75,1.58a10.09,10.09,0,0,0-.92-2.28,9.4,9.4,0,0,0-15.66-.89,7.77,7.77,0,0,0-1.57,3.61,9.34,9.34,0,0,0,2.55,8.57l-2.75,1.59a9.24,9.24,0,0,0-.92-2.28,9.34,9.34,0,1,0-14.68,11.29l-2.75,1.59c-.71-2.71-2.51-5.25-6.85-6.47A8.76,8.76,0,0,0,886,423a9.33,9.33,0,0,0-3,15.25l-2.74,1.58c-.77-2.86-2.76-5.62-7.69-6.56a8.74,8.74,0,0,0-5.55.63,9.34,9.34,0,0,0-3.87,13,9.44,9.44,0,0,0,1.5,1.95l-2.74,1.58c-.77-2.85-2.75-5.61-7.72-6.56a8.66,8.66,0,0,0-5.5.62,9.34,9.34,0,0,0-3.89,13,9.8,9.8,0,0,0,1.5,2l-2.74,1.58a9.21,9.21,0,0,0-.93-2.27,9.34,9.34,0,1,0-16.17,9.34,10,10,0,0,0,1.49,1.95l-2.74,1.58a9.05,9.05,0,0,0-.93-2.27,9.34,9.34,0,1,0-14.67,11.28l-2.75,1.59a9.05,9.05,0,0,0-2-3.79,9.34,9.34,0,0,0-15.08,10.86,9.3,9.3,0,0,0,1.5,1.94l-2.75,1.59c-.71-2.7-2.51-5.24-6.79-6.47a8.8,8.8,0,0,0-5.69.19,9.35,9.35,0,0,0-4.62,13.35,9,9,0,0,0,1.51,1.94l-2.75,1.58c-.77-2.85-2.75-5.62-7.71-6.56a8.66,8.66,0,0,0-5.5.62,9.34,9.34,0,0,0-3.9,13,9,9,0,0,0,1.51,1.94L751.79,514c-.77-2.88-2.79-5.66-7.79-6.57a8.63,8.63,0,0,0-5.47.65,9.3,9.3,0,0,0-2.34,14.94l-2.74,1.58a9.05,9.05,0,0,0-3.26-4.92,9.46,9.46,0,0,0-9.42-1.28,9.36,9.36,0,0,0-4.44,13.28,10,10,0,0,0,1.51,1.94l-2.74,1.58a9.09,9.09,0,0,0-.94-2.27A9.34,9.34,0,1,0,698,542.32a9.23,9.23,0,0,0,1.5,1.93l-2.74,1.59a9.44,9.44,0,0,0-.93-2.27,9.34,9.34,0,1,0-14.68,11.28l-2.74,1.59a9,9,0,0,0-6.35-6.43,8.78,8.78,0,0,0-5.34-.14,9.32,9.32,0,0,0-3.91,15.58L660.05,567c-.83-3.11-3.22-6.11-8.51-6.75a7.91,7.91,0,0,0-3.83.41A9.34,9.34,0,0,0,643,574.11a9,9,0,0,0,1.5,1.94l-2.75,1.58c-.83-3.1-3.21-6.08-8.46-6.75a8.07,8.07,0,0,0-3.81.39,9.33,9.33,0,0,0-3.33,15.38l-2.74,1.58a9.17,9.17,0,0,0-3.24-4.91,9.33,9.33,0,0,0-13.87,12,9.57,9.57,0,0,0,1.5,1.94L605,598.83a9.34,9.34,0,1,0-17.11,7.08,9.58,9.58,0,0,0,1.5,1.93l-2.74,1.59a9.44,9.44,0,0,0-.93-2.27,9.34,9.34,0,0,0-16.18,9.34,9.73,9.73,0,0,0,1.5,1.94L568.31,620c-.72-2.7-2.51-5.25-6.85-6.46a8.75,8.75,0,0,0-5.74.22,9.35,9.35,0,0,0-4.51,13.31,9,9,0,0,0,1.5,1.94L550,630.63c-.77-2.87-2.77-5.64-7.73-6.57a8.7,8.7,0,0,0-5.49.63,9.33,9.33,0,0,0-3.88,13,9,9,0,0,0,1.5,1.94l-2.75,1.59c-.76-2.86-2.74-5.62-7.71-6.56a8.65,8.65,0,0,0-5.5.61,9.35,9.35,0,0,0-3.89,13,9,9,0,0,0,1.5,1.94l-2.75,1.59a8.77,8.77,0,0,0-2.59-4.35,9.59,9.59,0,0,0-11.95-.78,9.32,9.32,0,0,0-1.06,14.14l-2.74,1.59a9.51,9.51,0,0,0-.93-2.28,9.34,9.34,0,0,0-16.18,9.35,9.65,9.65,0,0,0,1.5,1.94L476.57,673a9.16,9.16,0,0,0-2-3.8,9.34,9.34,0,0,0-15.08,10.86A9.8,9.8,0,0,0,461,682l-2.74,1.59c-.72-2.71-2.51-5.24-6.79-6.47a8.74,8.74,0,0,0-5.69.18,9.34,9.34,0,0,0-4.62,13.35,9.11,9.11,0,0,0,1.5,1.95l-2.75,1.58c-.77-2.87-2.77-5.65-7.79-6.56a8.6,8.6,0,0,0-5.48.64,9.34,9.34,0,0,0-3.83,13,9.11,9.11,0,0,0,1.5,2l-2.75,1.58c-.77-2.88-2.78-5.66-7.78-6.57a8.6,8.6,0,0,0-5.48.65,9.34,9.34,0,0,0-3.84,13,9.07,9.07,0,0,0,1.51,2l-2.76,1.58a9.24,9.24,0,0,0-.92-2.28,9.34,9.34,0,0,0-16.18,9.35,9,9,0,0,0,1.51,1.94L384.83,726a9.34,9.34,0,1,0-17.11,7.07,9,9,0,0,0,1.51,1.94l-2.75,1.59a9.34,9.34,0,1,0-17.11,7.06,9.15,9.15,0,0,0,1.51,2l-2.74,1.59a8.87,8.87,0,0,0-5.33-6A9.23,9.23,0,0,0,331,754.28a9.48,9.48,0,0,0,1.51,2l-2.74,1.58c-.83-3.11-3.23-6.1-8.52-6.75a8,8,0,0,0-3.83.42,9.34,9.34,0,0,0-4.76,13.4,9.11,9.11,0,0,0,1.5,2l-2.74,1.58c-.83-3.09-3.2-6.07-8.42-6.75a7.93,7.93,0,0,0-3.81.37,9.35,9.35,0,0,0-3.38,15.4L293.09,779a9.06,9.06,0,0,0-3.27-4.94,9.45,9.45,0,0,0-9.42-1.25A9.33,9.33,0,0,0,276,786.08a9.63,9.63,0,0,0,1.5,1.95l-2.75,1.58a9.31,9.31,0,0,0-12.51-6.27,9.33,9.33,0,0,0-3.09,15.28l-2.75,1.59a9.34,9.34,0,1,0-15.6,9l-2.74,1.59a9,9,0,0,0-5.06-6,9.31,9.31,0,0,0-10.55,15l-2.74,1.58c-.77-2.86-2.76-5.62-7.68-6.56a8.67,8.67,0,0,0-5.55.62,9.36,9.36,0,0,0-3.88,13,9.65,9.65,0,0,0,1.5,1.94L201.35,832c-.77-2.87-2.77-5.64-7.8-6.56a8.63,8.63,0,0,0-5.47.65,9.35,9.35,0,0,0-3.84,13,10,10,0,0,0,1.5,1.94L183,842.6a8.81,8.81,0,0,0-4-5.4,9.52,9.52,0,0,0-8.93-.68,9.35,9.35,0,0,0-4.16,13.16,9.85,9.85,0,0,0,1.5,1.94l-2.75,1.58a9.34,9.34,0,1,0-15.6,9l-2.75,1.59a8.94,8.94,0,0,0-2-3.8,9.34,9.34,0,0,0-15.07,10.87,9.3,9.3,0,0,0,1.5,1.94L128,874.4c-.72-2.7-2.51-5.23-6.77-6.46a8.76,8.76,0,0,0-5.7.17,9.33,9.33,0,0,0-3.14,15.3L109.61,885c-.77-2.87-2.78-5.65-7.79-6.56a8.6,8.6,0,0,0-5.48.65A9.3,9.3,0,0,0,94,894l-2.75,1.58c-.77-2.86-2.77-5.63-7.74-6.56a8.63,8.63,0,0,0-5.49.63,9.35,9.35,0,0,0-3.88,13,9.69,9.69,0,0,0,1.51,1.94l-2.75,1.58a8.71,8.71,0,0,0-2.61-4.34,9.56,9.56,0,0,0-11.93-.79,9.35,9.35,0,0,0-2.56,12.21,9.57,9.57,0,0,0,1.5,1.94l-2.74,1.58a9.44,9.44,0,0,0-.93-2.27,9.34,9.34,0,1,0-16.18,9.35A9.23,9.23,0,0,0,39,925.8l-2.74,1.59a9.44,9.44,0,0,0-.93-2.27,9.34,9.34,0,1,0-16.18,9.34,8.78,8.78,0,0,0,1.51,1.94L17.87,938a8.84,8.84,0,0,0-5.34-6,9.44,9.44,0,0,0-7.82.06A9.32,9.32,0,0,0,0,937.44v5.93a9.42,9.42,0,0,0,.76,1.69M980.25,354.32a8.13,8.13,0,1,0,11.1,3,8.13,8.13,0,0,0-11.1-3m18.36-10.6a8.13,8.13,0,1,0,11.1,3,8.14,8.14,0,0,0-11.1-3M1017,333.13a8.12,8.12,0,1,0,11.09,3,8.13,8.13,0,0,0-11.09-3m18.35-10.6a8.12,8.12,0,1,0,11.1,3,8.12,8.12,0,0,0-11.1-3m18.36-10.6a8.12,8.12,0,1,0,11.1,3,8.12,8.12,0,0,0-11.1-3m18.36-10.6a8.13,8.13,0,1,0,11.1,3,8.13,8.13,0,0,0-11.1-3m18.36-10.6a8.13,8.13,0,1,0,11.09,3,8.13,8.13,0,0,0-11.09-3m18.35-10.6a8.13,8.13,0,1,0,11.1,3,8.13,8.13,0,0,0-11.1-3m18.36-10.59a8.12,8.12,0,1,0,11.1,3,8.12,8.12,0,0,0-11.1-3m18.35-10.6a8.12,8.12,0,1,0,11.11,3,8.12,8.12,0,0,0-11.11-3m18.36-10.6a8.12,8.12,0,1,0,11.11,3,8.12,8.12,0,0,0-11.11-3m18.36-10.6a8.12,8.12,0,1,0,11.1,3,8.11,8.11,0,0,0-11.1-3m18.36-10.6a8.12,8.12,0,1,0,11.1,3,8.13,8.13,0,0,0-11.1-3m18.35-10.6a8.13,8.13,0,1,0,11.11,3,8.13,8.13,0,0,0-11.11-3m18.36-10.6a8.13,8.13,0,1,0,11.1,3,8.13,8.13,0,0,0-11.1-3m18.36-10.6a8.13,8.13,0,1,0,11.1,3,8.12,8.12,0,0,0-11.1-3m18.36-10.6a8.13,8.13,0,1,0,11.1,3,8.13,8.13,0,0,0-11.1-3m18.36-10.59a8.12,8.12,0,1,0,11.09,3,8.11,8.11,0,0,0-11.09-3m18.35-10.6a8.12,8.12,0,1,0,11.1,3,8.12,8.12,0,0,0-11.1-3M1329,153a8.12,8.12,0,1,0,11.1,3,8.12,8.12,0,0,0-11.1-3m18.36-10.6a8.12,8.12,0,1,0,11.1,3,8.11,8.11,0,0,0-11.1-3m18.36-10.6a8.12,8.12,0,1,0,11.09,3,8.13,8.13,0,0,0-11.09-3m18.35-10.6a8.12,8.12,0,1,0,11.1,3,8.12,8.12,0,0,0-11.1-3m18.36-10.6a8.13,8.13,0,1,0,11.1,3,8.13,8.13,0,0,0-11.1-3m18.36-10.6a8.13,8.13,0,1,0,11.1,3,8.14,8.14,0,0,0-11.1-3m15.9.51a8.21,8.21,0,0,0,2.6,2.73V89.6a8.14,8.14,0,0,0-2.6,10.86M973.18,342.08a6,6,0,1,0-8.2-2.2,6,6,0,0,0,8.2,2.2m18.36-10.59a6,6,0,1,0-8.21-2.2,6,6,0,0,0,8.21,2.2m18.36-10.6a6,6,0,1,0-8.21-2.2,6,6,0,0,0,8.21,2.2m18.36-10.6a6,6,0,1,0-8.21-2.2,6,6,0,0,0,8.21,2.2m18.35-10.6a6,6,0,1,0-8.2-2.2,6,6,0,0,0,8.2,2.2m18.36-10.6a6,6,0,1,0-8.2-2.2,6,6,0,0,0,8.2,2.2m18.36-10.6a6,6,0,1,0-8.21-2.2,6,6,0,0,0,8.21,2.2m18.36-10.6a6,6,0,1,0-8.21-2.19,6,6,0,0,0,8.21,2.19m18.36-10.59a6,6,0,1,0-8.21-2.2,6,6,0,0,0,8.21,2.2m18.35-10.6a6,6,0,1,0-8.2-2.2,6,6,0,0,0,8.2,2.2m18.35-10.6a6,6,0,1,0-8.2-2.2,6,6,0,0,0,8.2,2.2m18.36-10.6a6,6,0,1,0-8.2-2.2,6,6,0,0,0,8.2,2.2m18.36-10.6a6,6,0,1,0-8.2-2.2,6,6,0,0,0,8.2,2.2m18.36-10.6a6,6,0,1,0-8.2-2.19,6,6,0,0,0,8.2,2.19m18.36-10.59a6,6,0,1,0-8.2-2.2,6,6,0,0,0,8.2,2.2m18.35-10.6a6,6,0,1,0-8.2-2.2,6,6,0,0,0,8.2,2.2m18.36-10.6a6,6,0,1,0-8.2-2.2,6,6,0,0,0,8.2,2.2m18.36-10.6a6,6,0,1,0-8.2-2.2,6,6,0,0,0,8.2,2.2m18.36-10.6a6,6,0,1,0-8.2-2.2,6,6,0,0,0,8.2,2.2m18.35-10.6a6,6,0,1,0-8.2-2.19,6,6,0,0,0,8.2,2.19m18.36-10.6a6,6,0,1,0-8.21-2.19,6,6,0,0,0,8.21,2.19m18.36-10.6a6,6,0,1,0-8.21-2.19,6,6,0,0,0,8.21,2.19m18.36-10.6a6,6,0,1,0-8.21-2.19,6,6,0,0,0,8.21,2.19m18.36-10.6a6,6,0,1,0-8.21-2.19,6,6,0,0,0,8.21,2.19m18.35-10.59a6,6,0,1,0-8.2-2.2,6,6,0,0,0,8.2,2.2m18.36-10.6a6,6,0,1,0-8.21-2.2,6,6,0,0,0,8.21,2.2M936,326.63a4.22,4.22,0,0,0,.7.27,4.28,4.28,0,0,0,.73.12h0a4,4,0,0,0,2.2-.51,3.81,3.81,0,0,0,1.54-1.67,3.91,3.91,0,0,0,.27-.7,4.28,4.28,0,0,0,.12-.73,3.8,3.8,0,0,0-.19-1.49,3.86,3.86,0,0,0-.32-.72,3.88,3.88,0,0,0-3.1-1.94,6,6,0,0,0-.74,0,3.89,3.89,0,0,0-3.41,3.59,3.88,3.88,0,0,0,.51,2.21,3.83,3.83,0,0,0,1.67,1.55m22-10.86a3.88,3.88,0,1,0-5.31-1.42,3.89,3.89,0,0,0,5.31,1.42m18.36-10.6a3.88,3.88,0,1,0-5.31-1.42,3.88,3.88,0,0,0,5.31,1.42m18.36-10.6a3.88,3.88,0,1,0-5.31-1.41,3.89,3.89,0,0,0,5.31,1.41m18.36-10.6a3.88,3.88,0,1,0-5.31-1.41,3.88,3.88,0,0,0,5.31,1.41m18.35-10.59a3.88,3.88,0,1,0-5.31-1.42,3.88,3.88,0,0,0,5.31,1.42m18.36-10.6a3.88,3.88,0,1,0-5.31-1.42,3.88,3.88,0,0,0,5.31,1.42m18.36-10.6a3.89,3.89,0,1,0-5.31-1.42,3.89,3.89,0,0,0,5.31,1.42m18.36-10.6a3.89,3.89,0,1,0-5.31-1.42,3.88,3.88,0,0,0,5.31,1.42m18.36-10.6a3.89,3.89,0,1,0-5.32-1.42,3.89,3.89,0,0,0,5.32,1.42m18.35-10.6a3.89,3.89,0,1,0-5.31-1.42,3.88,3.88,0,0,0,5.31,1.42m18.35-10.59a3.89,3.89,0,1,0-5.3-1.43,3.89,3.89,0,0,0,5.3,1.43m18.36-10.6a3.89,3.89,0,1,0-5.3-1.43,3.89,3.89,0,0,0,5.3,1.43m18.36-10.6a3.89,3.89,0,1,0-5.3-1.43,3.88,3.88,0,0,0,5.3,1.43m18.36-10.6a3.89,3.89,0,1,0-5.31-1.42,3.89,3.89,0,0,0,5.31,1.42m18.35-10.6a3.88,3.88,0,1,0-5.31-1.42,3.89,3.89,0,0,0,5.31,1.42m18.36-10.6a3.88,3.88,0,1,0-5.31-1.42,3.88,3.88,0,0,0,5.31,1.42m18.36-10.59a3.89,3.89,0,1,0-5.31-1.43,3.88,3.88,0,0,0,5.31,1.43m18.36-10.6a3.89,3.89,0,1,0-5.31-1.43,3.89,3.89,0,0,0,5.31,1.43m18.36-10.6a3.89,3.89,0,1,0-5.31-1.43,3.89,3.89,0,0,0,5.31,1.43m18.35-10.6a3.88,3.88,0,1,0-5.31-1.43,3.89,3.89,0,0,0,5.31,1.43m18.36-10.6a3.88,3.88,0,1,0-5.31-1.43,3.89,3.89,0,0,0,5.31,1.43m18.36-10.6a3.89,3.89,0,1,0-5.31-1.42,3.88,3.88,0,0,0,5.31,1.42m18.36-10.59a3.89,3.89,0,1,0-5.31-1.43,3.89,3.89,0,0,0,5.31,1.43M1380.21,72a3.89,3.89,0,1,0-5.31-1.43,3.88,3.88,0,0,0,5.31,1.43m18.36-10.6a3.89,3.89,0,1,0-5.31-1.43,3.88,3.88,0,0,0,5.31,1.43m18.36-10.6a3.89,3.89,0,1,0-5.31-1.43,3.89,3.89,0,0,0,5.31,1.43m18.36-10.6a3.89,3.89,0,1,0-5.31-1.43,3.9,3.9,0,0,0,5.31,1.43M942.8,289.46a1.77,1.77,0,1,0-2.41-.65,1.77,1.77,0,0,0,2.41.65m18.36-10.6a1.77,1.77,0,1,0-2.41-.65,1.76,1.76,0,0,0,2.41.65m18.36-10.6a1.77,1.77,0,1,0-2.42-.65,1.76,1.76,0,0,0,2.42.65m18.36-10.6a1.77,1.77,0,1,0-2.42-.65,1.76,1.76,0,0,0,2.42.65m18.35-10.6a1.76,1.76,0,1,0-2.41-.64,1.76,1.76,0,0,0,2.41.64m18.36-10.6a1.76,1.76,0,1,0-2.41-.64,1.76,1.76,0,0,0,2.41.64m18.36-10.6a1.76,1.76,0,1,0-2.41-.64,1.76,1.76,0,0,0,2.41.64m18.36-10.59a1.77,1.77,0,1,0-2.42-.65,1.76,1.76,0,0,0,2.42.65m18.35-10.6a1.76,1.76,0,0,0,.65-2.41,1.79,1.79,0,0,0-2.42-.65,1.77,1.77,0,0,0,1.77,3.06m18.35-10.6a1.75,1.75,0,0,0,.65-2.41,1.77,1.77,0,1,0-.65,2.41m18.36-10.6a1.76,1.76,0,1,0-2.41-.64,1.76,1.76,0,0,0,2.41.64m18.36-10.6a1.76,1.76,0,1,0-2.41-.64,1.76,1.76,0,0,0,2.41.64m18.36-10.6a1.76,1.76,0,1,0-2.41-.64,1.77,1.77,0,0,0,2.41.64m18.36-10.59A1.77,1.77,0,1,0,1179,151a1.78,1.78,0,0,0,2.42.65m18.35-10.6a1.77,1.77,0,1,0-2.41-.65,1.76,1.76,0,0,0,2.41.65m18.36-10.6a1.77,1.77,0,1,0-2.41-.65,1.77,1.77,0,0,0,2.41.65m18.36-10.6a1.77,1.77,0,1,0-2.41-.64,1.77,1.77,0,0,0,2.41.64m18.36-10.6a1.77,1.77,0,1,0-2.42-.64,1.77,1.77,0,0,0,2.42.64m18.35-10.6a1.76,1.76,0,1,0-2.41-.64,1.75,1.75,0,0,0,2.41.64m18.36-10.59a1.77,1.77,0,1,0-2.41-.65,1.76,1.76,0,0,0,2.41.65M1310,77.49a1.77,1.77,0,1,0-2.41-.65,1.76,1.76,0,0,0,2.41.65m18.36-10.6a1.77,1.77,0,1,0-2.41-.65,1.76,1.76,0,0,0,2.41.65m18.36-10.6a1.77,1.77,0,1,0-2.42-.64,1.76,1.76,0,0,0,2.42.64M1365,45.69a1.77,1.77,0,1,0-1.77-3.06,1.77,1.77,0,0,0,1.77,3.06m18.36-10.6a1.77,1.77,0,0,0-1.77-3.06,1.77,1.77,0,0,0,1.77,3.06m18.36-10.59a1.77,1.77,0,1,0-2.41-.65,1.77,1.77,0,0,0,2.41.65m18.36-10.6a1.77,1.77,0,1,0-2.42-.65,1.77,1.77,0,0,0,2.42.65M1439,3.3a1.64,1.64,0,0,0,.35-.29V.52a1.77,1.77,0,0,0-2.12-.29A1.77,1.77,0,1,0,1439,3.3M258.83,737a4.95,4.95,0,1,0-6.76-1.81,5,5,0,0,0,6.76,1.81m-15.19-26.32a2.82,2.82,0,1,0-3.86-1,2.83,2.83,0,0,0,3.86,1m33.55,15.72a4.95,4.95,0,1,0-6.76-1.81,5,5,0,0,0,6.76,1.81M262,700.06a2.82,2.82,0,1,0-3.86-1,2.83,2.83,0,0,0,3.86,1m33.54,15.72a4.95,4.95,0,1,0-6.75-1.81,5,5,0,0,0,6.75,1.81m-15.19-26.31a2.83,2.83,0,1,0-3.85-1,2.81,2.81,0,0,0,3.85,1m33.55,15.71a4.95,4.95,0,1,0-6.75-1.81,4.94,4.94,0,0,0,6.75,1.81m-15.19-26.31a2.83,2.83,0,1,0-3.86-1,2.84,2.84,0,0,0,3.86,1m33.55,15.71a4.95,4.95,0,1,0-6.76-1.81,5,5,0,0,0,6.76,1.81m-15.19-26.31a2.83,2.83,0,1,0-3.87-1,2.83,2.83,0,0,0,3.87,1M350.62,684a4.95,4.95,0,1,0-6.76-1.82,5,5,0,0,0,6.76,1.82m-15.19-26.32a2.83,2.83,0,1,0-3.87-1,2.83,2.83,0,0,0,3.87,1M369,673.39a5,5,0,1,0-6.76-1.82,5,5,0,0,0,6.76,1.82m-15.2-26.32a2.83,2.83,0,1,0-3.86-1,2.82,2.82,0,0,0,3.86,1m33.55,15.72a4.95,4.95,0,1,0-6.75-1.82,4.94,4.94,0,0,0,6.75,1.82m-15.19-26.32a2.83,2.83,0,1,0-3.86-1,2.82,2.82,0,0,0,3.86,1m33.55,15.72a4.95,4.95,0,1,0-6.76-1.82,5,5,0,0,0,6.76,1.82M390.5,625.88a2.83,2.83,0,1,0-3.87-1,2.84,2.84,0,0,0,3.87,1m33.55,15.71a4.95,4.95,0,1,0-6.76-1.81,4.95,4.95,0,0,0,6.76,1.81m-15.19-26.31a2.83,2.83,0,1,0-3.87-1,2.84,2.84,0,0,0,3.87,1M442.41,631a4.95,4.95,0,1,0-6.77-1.81,4.95,4.95,0,0,0,6.77,1.81m-15.2-26.31a2.83,2.83,0,1,0-3.86-1,2.83,2.83,0,0,0,3.86,1m33.55,15.71a4.94,4.94,0,1,0-6.76-1.81,4.94,4.94,0,0,0,6.76,1.81m-15.19-26.31a2.83,2.83,0,1,0-3.86-1,2.83,2.83,0,0,0,3.86,1m33.55,15.71a4.94,4.94,0,1,0-6.76-1.81,4.93,4.93,0,0,0,6.76,1.81m-15.2-26.31a2.83,2.83,0,1,0-3.85-1,2.82,2.82,0,0,0,3.85,1m33.55,15.71a4.94,4.94,0,1,0-6.75-1.81,4.93,4.93,0,0,0,6.75,1.81m-15.19-26.31a2.83,2.83,0,1,0-3.86-1,2.82,2.82,0,0,0,3.86,1m33.55,15.71a4.94,4.94,0,1,0-6.76-1.81,4.93,4.93,0,0,0,6.76,1.81m-15.19-26.3a2.83,2.83,0,1,0-3.86-1,2.84,2.84,0,0,0,3.86,1M534.19,578a4.94,4.94,0,1,0-6.76-1.81,4.94,4.94,0,0,0,6.76,1.81M519,551.69a2.83,2.83,0,1,0-3.86-1,2.83,2.83,0,0,0,3.86,1m33.55,15.71a4.95,4.95,0,1,0-6.76-1.81,5,5,0,0,0,6.76,1.81m-15.2-26.31a2.83,2.83,0,1,0-3.85-1,2.82,2.82,0,0,0,3.85,1M570.9,556.8a4.94,4.94,0,1,0-6.75-1.81,5,5,0,0,0,6.75,1.81m-15.19-26.31a2.83,2.83,0,1,0-3.86-1,2.82,2.82,0,0,0,3.86,1m33.55,15.71a4.94,4.94,0,1,0-6.75-1.81,4.93,4.93,0,0,0,6.75,1.81m-15.19-26.31a2.83,2.83,0,1,0-3.86-1,2.82,2.82,0,0,0,3.86,1m33.55,15.71a4.94,4.94,0,1,0-6.76-1.81,5,5,0,0,0,6.76,1.81m-15.19-26.31a2.83,2.83,0,1,0-3.86-1,2.84,2.84,0,0,0,3.86,1M626,525a4.94,4.94,0,1,0-6.76-1.81A4.95,4.95,0,0,0,626,525m-15.19-26.31a2.82,2.82,0,1,0-3.86-1,2.84,2.84,0,0,0,3.86,1m33.54,15.71a4.94,4.94,0,1,0-6.75-1.81,4.94,4.94,0,0,0,6.75,1.81m-15.19-26.31a2.82,2.82,0,1,0-3.86-1,2.82,2.82,0,0,0,3.86,1m33.55,15.71a4.94,4.94,0,1,0-6.75-1.8,4.93,4.93,0,0,0,6.75,1.8M647.5,477.49a2.82,2.82,0,1,0-3.86-1,2.82,2.82,0,0,0,3.86,1m33.55,15.72a4.95,4.95,0,1,0-6.76-1.81,5,5,0,0,0,6.76,1.81m-15.19-26.32a2.82,2.82,0,1,0-3.87-1,2.82,2.82,0,0,0,3.87,1m33.55,15.72a4.95,4.95,0,1,0-6.76-1.81,5,5,0,0,0,6.76,1.81m-15.19-26.32a2.82,2.82,0,1,0-3.87-1,2.82,2.82,0,0,0,3.87,1M717.77,472A5,5,0,1,0,711,470.2a5,5,0,0,0,6.76,1.81m-15.2-26.32a2.82,2.82,0,1,0-3.86-1,2.82,2.82,0,0,0,3.86,1m33.55,15.72a4.95,4.95,0,1,0-6.75-1.81,4.93,4.93,0,0,0,6.75,1.81M720.93,435.1a2.82,2.82,0,1,0-3.86-1,2.83,2.83,0,0,0,3.86,1m33.55,15.71a4.95,4.95,0,1,0-6.76-1.81,4.93,4.93,0,0,0,6.76,1.81M739.29,424.5a2.82,2.82,0,1,0-3.86-1,2.83,2.83,0,0,0,3.86,1m33.55,15.71a4.95,4.95,0,1,0-6.76-1.8,4.94,4.94,0,0,0,6.76,1.8m-15.2-26.31a2.82,2.82,0,1,0-3.86-1,2.82,2.82,0,0,0,3.86,1m33.56,15.72a4.95,4.95,0,1,0-6.77-1.81,4.95,4.95,0,0,0,6.77,1.81M776,403.3a2.82,2.82,0,1,0-3.86-1,2.83,2.83,0,0,0,3.86,1M809.55,419a4.95,4.95,0,1,0-6.76-1.81,4.94,4.94,0,0,0,6.76,1.81M794.36,392.7a2.82,2.82,0,1,0-3.86-1,2.82,2.82,0,0,0,3.86,1m33.55,15.72a4.95,4.95,0,1,0-6.76-1.81,4.94,4.94,0,0,0,6.76,1.81m-15.2-26.32a2.82,2.82,0,1,0-3.85-1,2.82,2.82,0,0,0,3.85,1m33.55,15.72a4.95,4.95,0,1,0-6.75-1.81,4.94,4.94,0,0,0,6.75,1.81m-15.19-26.31a2.83,2.83,0,1,0-3.86-1,2.83,2.83,0,0,0,3.86,1m33.55,15.71a4.95,4.95,0,1,0-6.75-1.81,4.94,4.94,0,0,0,6.75,1.81m-15.19-26.31a2.83,2.83,0,1,0-3.86-1,2.82,2.82,0,0,0,3.86,1M883,376.62a4.95,4.95,0,1,0-6.76-1.8,4.95,4.95,0,0,0,6.76,1.8m-15.19-26.31a2.82,2.82,0,1,0-3.86-1,2.82,2.82,0,0,0,3.86,1M901.34,366a4.95,4.95,0,1,0-6.76-1.81,5,5,0,0,0,6.76,1.81m-15.19-26.32a2.82,2.82,0,1,0-3.86-1,2.83,2.83,0,0,0,3.86,1m33.54,15.72a4.95,4.95,0,1,0-6.75-1.81,5,5,0,0,0,6.75,1.81M904.5,329.11a2.82,2.82,0,1,0-3.86-1,2.82,2.82,0,0,0,3.86,1m33.55,15.72A4.95,4.95,0,1,0,931.3,343a4.94,4.94,0,0,0,6.75,1.81m-15.19-26.32a2.82,2.82,0,1,0-3.86-1,2.82,2.82,0,0,0,3.86,1M264.37,760.7a7.07,7.07,0,1,0,2.58-9.65,7.06,7.06,0,0,0-2.58,9.65m18.36-10.6a7.06,7.06,0,1,0,2.58-9.65,7.06,7.06,0,0,0-2.58,9.65m18.35-10.6a7.07,7.07,0,1,0,2.59-9.64,7.07,7.07,0,0,0-2.59,9.64m18.36-10.59a7.07,7.07,0,1,0,2.59-9.65,7.07,7.07,0,0,0-2.59,9.65m18.36-10.6a7.07,7.07,0,1,0,2.58-9.65,7.07,7.07,0,0,0-2.58,9.65m18.36-10.6a7.06,7.06,0,1,0,2.58-9.65,7.06,7.06,0,0,0-2.58,9.65m18.35-10.6a7.07,7.07,0,1,0,2.59-9.65,7.08,7.08,0,0,0-2.59,9.65m18.36-10.6a7.07,7.07,0,1,0,2.59-9.65,7.06,7.06,0,0,0-2.59,9.65m18.36-10.6a7.07,7.07,0,1,0,2.59-9.65,7.06,7.06,0,0,0-2.59,9.65m18.36-10.59a7.07,7.07,0,1,0,2.58-9.66,7.07,7.07,0,0,0-2.58,9.66m18.35-10.6a7.07,7.07,0,1,0,2.59-9.66,7.07,7.07,0,0,0-2.59,9.66m18.36-10.6a7.07,7.07,0,1,0,2.59-9.66,7.06,7.06,0,0,0-2.59,9.66m18.36-10.6a7.06,7.06,0,1,0,2.59-9.65,7.06,7.06,0,0,0-2.59,9.65M503,622.92a7.06,7.06,0,1,0,2.58-9.65,7.05,7.05,0,0,0-2.58,9.65m18.35-10.6a7.07,7.07,0,1,0,2.58-9.65,7.06,7.06,0,0,0-2.58,9.65m18.36-10.59a7.06,7.06,0,1,0,2.58-9.66,7.07,7.07,0,0,0-2.58,9.66m18.35-10.6a7.07,7.07,0,1,0,2.59-9.66,7.08,7.08,0,0,0-2.59,9.66m18.36-10.6a7.07,7.07,0,1,0,2.59-9.66,7.06,7.06,0,0,0-2.59,9.66m18.36-10.6a7.07,7.07,0,1,0,2.59-9.66,7.06,7.06,0,0,0-2.59,9.66m18.36-10.6a7.07,7.07,0,1,0,2.58-9.66,7.06,7.06,0,0,0-2.58,9.66m18.36-10.6a7.06,7.06,0,1,0,2.58-9.66,7.05,7.05,0,0,0-2.58,9.66m18.35-10.6a7.07,7.07,0,1,0,2.59-9.65,7.07,7.07,0,0,0-2.59,9.65m18.36-10.6a7.07,7.07,0,1,0,2.59-9.65,7.06,7.06,0,0,0-2.59,9.65m18.36-10.6a7.07,7.07,0,1,0,2.58-9.65,7.06,7.06,0,0,0-2.58,9.65M705,506.33a7.06,7.06,0,1,0,2.58-9.65,7.06,7.06,0,0,0-2.58,9.65m18.35-10.6a7.07,7.07,0,1,0,2.59-9.65,7.07,7.07,0,0,0-2.59,9.65m18.36-10.6a7.07,7.07,0,1,0,2.59-9.65,7,7,0,0,0-2.59,9.65M760,474.54a7.07,7.07,0,1,0,2.59-9.65,7.06,7.06,0,0,0-2.59,9.65m18.36-10.6a7.07,7.07,0,1,0,2.58-9.65,7.06,7.06,0,0,0-2.58,9.65m18.36-10.6a7.06,7.06,0,1,0,2.58-9.65,7.06,7.06,0,0,0-2.58,9.65m18.35-10.6a7.07,7.07,0,1,0,2.59-9.65,7.07,7.07,0,0,0-2.59,9.65m18.36-10.6a7.07,7.07,0,1,0,2.59-9.65,7.06,7.06,0,0,0-2.59,9.65m18.35-10.6a7.07,7.07,0,1,0,2.59-9.65,7.06,7.06,0,0,0-2.59,9.65M870.16,411a7.07,7.07,0,1,0,2.59-9.65,7.08,7.08,0,0,0-2.59,9.65m18.36-10.6a7.07,7.07,0,1,0,2.58-9.65,7.07,7.07,0,0,0-2.58,9.65m18.35-10.6a7.07,7.07,0,1,0,2.59-9.65,7.08,7.08,0,0,0-2.59,9.65m18.36-10.6a7.07,7.07,0,1,0,2.59-9.65,7.06,7.06,0,0,0-2.59,9.65m18.36-10.6a7.07,7.07,0,1,0,2.59-9.65,7.06,7.06,0,0,0-2.59,9.65M282.67,757.07a8.12,8.12,0,1,0,11.1,3,8.12,8.12,0,0,0-11.1-3M301,746.47a8.13,8.13,0,1,0,11.1,3,8.13,8.13,0,0,0-11.1-3m18.36-10.6a8.13,8.13,0,1,0,11.09,3,8.13,8.13,0,0,0-11.09-3m18.35-10.6a8.13,8.13,0,1,0,11.1,3,8.14,8.14,0,0,0-11.1-3m18.36-10.59a8.12,8.12,0,1,0,11.1,3,8.11,8.11,0,0,0-11.1-3m18.36-10.6a8.12,8.12,0,1,0,11.1,3,8.11,8.11,0,0,0-11.1-3m18.36-10.6a8.12,8.12,0,1,0,11.09,3,8.13,8.13,0,0,0-11.09-3m18.35-10.6a8.13,8.13,0,1,0,11.1,3,8.14,8.14,0,0,0-11.1-3m18.36-10.6a8.13,8.13,0,1,0,11.1,3,8.13,8.13,0,0,0-11.1-3m18.35-10.6a8.13,8.13,0,1,0,11.11,3,8.14,8.14,0,0,0-11.11-3m18.36-10.59a8.12,8.12,0,1,0,11.1,3,8.11,8.11,0,0,0-11.1-3m18.36-10.6a8.12,8.12,0,1,0,11.1,3,8.13,8.13,0,0,0-11.1-3M503,629.89a8.12,8.12,0,1,0,11.1,3,8.13,8.13,0,0,0-11.1-3m18.35-10.6a8.13,8.13,0,1,0,11.11,3,8.13,8.13,0,0,0-11.11-3m18.36-10.6a8.13,8.13,0,1,0,11.11,3,8.14,8.14,0,0,0-11.11-3M558,598.09a8.13,8.13,0,1,0,11.1,3,8.12,8.12,0,0,0-11.1-3m18.36-10.59a8.12,8.12,0,1,0,11.09,3,8.12,8.12,0,0,0-11.09-3m18.35-10.6a8.12,8.12,0,1,0,11.1,3,8.11,8.11,0,0,0-11.1-3m18.36-10.6a8.12,8.12,0,1,0,11.1,3,8.11,8.11,0,0,0-11.1-3m18.36-10.6a8.12,8.12,0,1,0,11.1,3,8.11,8.11,0,0,0-11.1-3m18.36-10.6a8.12,8.12,0,1,0,11.1,3,8.13,8.13,0,0,0-11.1-3m18.36-10.6a8.12,8.12,0,1,0,11.09,3,8.13,8.13,0,0,0-11.09-3m18.35-10.6a8.12,8.12,0,1,0,11.1,3,8.13,8.13,0,0,0-11.1-3m18.36-10.6a8.12,8.12,0,1,0,11.1,3,8.13,8.13,0,0,0-11.1-3m18.36-10.6a8.12,8.12,0,1,0,11.1,3,8.12,8.12,0,0,0-11.1-3m18.36-10.6a8.13,8.13,0,1,0,11.09,3,8.13,8.13,0,0,0-11.09-3M760,481.5a8.13,8.13,0,1,0,11.1,3,8.15,8.15,0,0,0-11.1-3m18.36-10.6a8.13,8.13,0,1,0,11.1,3,8.14,8.14,0,0,0-11.1-3m18.35-10.59a8.12,8.12,0,1,0,11.11,3,8.13,8.13,0,0,0-11.11-3M815,449.71a8.12,8.12,0,1,0,11.11,3,8.12,8.12,0,0,0-11.11-3m18.36-10.6a8.12,8.12,0,1,0,11.1,3,8.11,8.11,0,0,0-11.1-3m18.36-10.6a8.13,8.13,0,1,0,11.1,3,8.13,8.13,0,0,0-11.1-3m18.35-10.6a8.13,8.13,0,1,0,11.11,3,8.15,8.15,0,0,0-11.11-3m18.36-10.6a8.13,8.13,0,1,0,11.11,3,8.15,8.15,0,0,0-11.11-3m18.36-10.59a8.12,8.12,0,1,0,11.1,3,8.12,8.12,0,0,0-11.1-3m18.36-10.6a8.12,8.12,0,1,0,11.1,3,8.13,8.13,0,0,0-11.1-3m18.36-10.6a8.12,8.12,0,1,0,11.09,3,8.12,8.12,0,0,0-11.09-3M973,367.89a8.29,8.29,0,0,0-2.13-2.42,8.19,8.19,0,0,0-4.34-1.62c-.26,0-.52,0-.78,0a8.08,8.08,0,0,0-3.85,1.08c-.24.14-.47.29-.7.45s-.43.33-.63.51a8.25,8.25,0,0,0-1.91,2.51,8.11,8.11,0,0,0-.8,3,8.24,8.24,0,0,0,0,1.57,8.1,8.1,0,0,0,1,3.06,7,7,0,0,0,.45.7,8.18,8.18,0,0,0,2.34,2.17c.22.13.45.26.68.37a7.81,7.81,0,0,0,1.46.55,8,8,0,0,0,1.54.25,6.77,6.77,0,0,0,.78,0A5.16,5.16,0,0,0,967,380a7.91,7.91,0,0,0,3.06-1,8.12,8.12,0,0,0,4-5.7,7.4,7.4,0,0,0,.11-1.56A5,5,0,0,0,974,371a8.2,8.2,0,0,0-.65-2.33,6.49,6.49,0,0,0-.38-.74M275.6,744.83a6,6,0,1,0-8.2-2.2,6,6,0,0,0,8.2,2.2M294,734.23a6,6,0,1,0-8.21-2.2,6,6,0,0,0,8.21,2.2m18.36-10.6a6,6,0,1,0-8.21-2.2,6,6,0,0,0,8.21,2.2M330.68,713a6,6,0,1,0-8.21-2.2,6,6,0,0,0,8.21,2.2M349,702.44a6,6,0,1,0-8.2-2.2,6,6,0,0,0,8.2,2.2m18.36-10.6a6,6,0,1,0-8.21-2.2,6,6,0,0,0,8.21,2.2m18.36-10.6a6,6,0,1,0-8.21-2.2,6,6,0,0,0,8.21,2.2m18.36-10.6a6,6,0,1,0-8.21-2.2,6,6,0,0,0,8.21,2.2M422.46,660a6,6,0,1,0-8.2-2.2,6,6,0,0,0,8.2,2.2m18.36-10.59a6,6,0,1,0-8.2-2.2,6,6,0,0,0,8.2,2.2m18.36-10.6a6,6,0,1,0-8.21-2.2,6,6,0,0,0,8.21,2.2m18.36-10.6a6,6,0,1,0-8.21-2.2,6,6,0,0,0,8.21,2.2m18.35-10.6a6,6,0,1,0-8.2-2.2,6,6,0,0,0,8.2,2.2m18.36-10.6a6,6,0,1,0-8.2-2.2,6,6,0,0,0,8.2,2.2m18.35-10.6a6,6,0,1,0-8.2-2.2,6,6,0,0,0,8.2,2.2M551,585.85a6,6,0,1,0-8.2-2.19,6,6,0,0,0,8.2,2.19m18.36-10.59a6,6,0,1,0-8.2-2.2,6,6,0,0,0,8.2,2.2m18.36-10.6a6,6,0,1,0-8.2-2.2,6,6,0,0,0,8.2,2.2M606,554.06a6,6,0,1,0-8.2-2.2,6,6,0,0,0,8.2,2.2m18.35-10.6a6,6,0,1,0-8.2-2.2,6,6,0,0,0,8.2,2.2m18.36-10.6a6,6,0,1,0-8.21-2.2,6,6,0,0,0,8.21,2.2m18.36-10.6a6,6,0,1,0-8.21-2.19,6,6,0,0,0,8.21,2.19m18.36-10.6a6,6,0,1,0-8.21-2.19,6,6,0,0,0,8.21,2.19m18.35-10.59a6,6,0,1,0-8.2-2.2,6,6,0,0,0,8.2,2.2m18.36-10.6a6,6,0,1,0-8.2-2.2,6,6,0,0,0,8.2,2.2m18.36-10.6a6,6,0,1,0-8.21-2.2,6,6,0,0,0,8.21,2.2m18.36-10.6a6,6,0,1,0-8.21-2.2,6,6,0,0,0,8.21,2.2m18.36-10.6a6,6,0,1,0-8.21-2.2,6,6,0,0,0,8.21,2.2m18.35-10.6a6,6,0,1,0-8.2-2.2,6,6,0,0,0,8.2,2.2M808,437.47a6,6,0,1,0-8.21-2.2,6,6,0,0,0,8.21,2.2m18.35-10.6a6,6,0,1,0-8.2-2.2,6,6,0,0,0,8.2,2.2m18.36-10.6a6,6,0,1,0-8.2-2.19,6,6,0,0,0,8.2,2.19M863,405.67a6,6,0,1,0-8.2-2.19,6,6,0,0,0,8.2,2.19m18.36-10.6a6,6,0,1,0-8.21-2.19,6,6,0,0,0,8.21,2.19m18.35-10.59a6,6,0,1,0-8.2-2.2,6,6,0,0,0,8.2,2.2m18.36-10.6a6,6,0,1,0-8.2-2.2,6,6,0,0,0,8.2,2.2m18.36-10.6a6,6,0,1,0-8.2-2.2,6,6,0,0,0,8.2,2.2m12.72-10.4a6.1,6.1,0,0,0,2.21.59,6,6,0,0,0,3.43-.79,5.91,5.91,0,0,0,1.79-1.57,6.13,6.13,0,0,0,1-2.07,6,6,0,0,0-8.81-6.76,6,6,0,0,0,.37,10.6M260.41,718.52a3.88,3.88,0,1,0-5.31-1.42,3.89,3.89,0,0,0,5.31,1.42m18.36-10.6a3.89,3.89,0,1,0-5.31-1.42,3.88,3.88,0,0,0,5.31,1.42m18.36-10.6a3.89,3.89,0,1,0-5.31-1.42,3.89,3.89,0,0,0,5.31,1.42m18.36-10.6a3.88,3.88,0,1,0-5.31-1.42,3.89,3.89,0,0,0,5.31,1.42m18.35-10.6a3.88,3.88,0,1,0-5.31-1.41,3.88,3.88,0,0,0,5.31,1.41m18.36-10.6a3.88,3.88,0,1,0-5.31-1.41,3.87,3.87,0,0,0,5.31,1.41m18.36-10.59a3.89,3.89,0,1,0-5.31-1.42,3.89,3.89,0,0,0,5.31,1.42m18.36-10.6a3.89,3.89,0,1,0-5.31-1.42,3.88,3.88,0,0,0,5.31,1.42m18.35-10.6a3.88,3.88,0,1,0-5.31-1.42,3.88,3.88,0,0,0,5.31,1.42m18.36-10.6a3.89,3.89,0,1,0-5.31-1.42,3.9,3.9,0,0,0,5.31,1.42M444,612.53a3.89,3.89,0,1,0-5.31-1.42,3.9,3.9,0,0,0,5.31,1.42m18.35-10.6a3.89,3.89,0,1,0-5.3-1.41,3.87,3.87,0,0,0,5.3,1.41m18.36-10.59a3.89,3.89,0,1,0-5.31-1.42,3.89,3.89,0,0,0,5.31,1.42m18.36-10.6a3.89,3.89,0,1,0-5.31-1.42,3.89,3.89,0,0,0,5.31,1.42m18.35-10.6a3.88,3.88,0,1,0-5.3-1.42,3.89,3.89,0,0,0,5.3,1.42m18.36-10.6a3.88,3.88,0,1,0-5.31-1.42,3.89,3.89,0,0,0,5.31,1.42m18.36-10.6a3.89,3.89,0,1,0-5.31-1.42,3.88,3.88,0,0,0,5.31,1.42m18.36-10.6a3.89,3.89,0,1,0-5.31-1.42,3.88,3.88,0,0,0,5.31,1.42m18.35-10.59a3.89,3.89,0,1,0-5.31-1.43,3.89,3.89,0,0,0,5.31,1.43m18.36-10.6a3.89,3.89,0,1,0-5.31-1.43,3.89,3.89,0,0,0,5.31,1.43m18.36-10.6a3.89,3.89,0,1,0-5.31-1.43,3.88,3.88,0,0,0,5.31,1.43M645.92,496a3.89,3.89,0,1,0-5.31-1.43,3.89,3.89,0,0,0,5.31,1.43m18.36-10.6a3.89,3.89,0,1,0-5.31-1.42,3.89,3.89,0,0,0,5.31,1.42m18.35-10.6a3.88,3.88,0,1,0-5.31-1.42,3.87,3.87,0,0,0,5.31,1.42M701,464.16a3.89,3.89,0,1,0-5.31-1.43,3.88,3.88,0,0,0,5.31,1.43m18.36-10.6a3.89,3.89,0,1,0-5.31-1.43,3.89,3.89,0,0,0,5.31,1.43M737.71,443a3.89,3.89,0,1,0-5.31-1.43,3.89,3.89,0,0,0,5.31,1.43m18.35-10.6a3.88,3.88,0,1,0-5.31-1.43,3.89,3.89,0,0,0,5.31,1.43m18.36-10.6a3.89,3.89,0,1,0-5.31-1.42,3.89,3.89,0,0,0,5.31,1.42m18.35-10.6a3.88,3.88,0,1,0-5.3-1.42,3.89,3.89,0,0,0,5.3,1.42m18.36-10.6a3.88,3.88,0,1,0-5.3-1.42,3.89,3.89,0,0,0,5.3,1.42M829.49,390a3.89,3.89,0,1,0-5.3-1.42,3.89,3.89,0,0,0,5.3,1.42m18.36-10.6a3.89,3.89,0,1,0-5.31-1.42,3.89,3.89,0,0,0,5.31,1.42m18.35-10.6a3.88,3.88,0,1,0-5.31-1.42,3.89,3.89,0,0,0,5.31,1.42m18.36-10.59a3.88,3.88,0,1,0-5.31-1.42,3.9,3.9,0,0,0,5.31,1.42m18.36-10.6a3.89,3.89,0,1,0-5.31-1.42,3.88,3.88,0,0,0,5.31,1.42M921.28,337a3.89,3.89,0,1,0-5.31-1.42,3.89,3.89,0,0,0,5.31,1.42M245.22,692.21a1.77,1.77,0,1,0-2.41-.65,1.77,1.77,0,0,0,2.41.65m18.36-10.6a1.77,1.77,0,0,0-1.77-3.06,1.77,1.77,0,0,0,1.77,3.06M281.94,671a1.77,1.77,0,1,0-2.42-.65,1.76,1.76,0,0,0,2.42.65m18.35-10.6a1.76,1.76,0,0,0,.65-2.41,1.77,1.77,0,1,0-3.06,1.76,1.76,1.76,0,0,0,2.41.65m18.36-10.6a1.76,1.76,0,0,0,.65-2.41,1.79,1.79,0,0,0-2.42-.65,1.77,1.77,0,0,0,1.77,3.06M337,639.22a1.77,1.77,0,1,0-2.41-.65,1.75,1.75,0,0,0,2.41.65m18.36-10.6a1.77,1.77,0,0,0-1.77-3.06,1.77,1.77,0,1,0,1.77,3.06M373.73,618a1.77,1.77,0,1,0-2.42-.65,1.77,1.77,0,0,0,2.42.65m18.35-10.6a1.77,1.77,0,1,0-2.41-.65,1.76,1.76,0,0,0,2.41.65m18.35-10.6a1.77,1.77,0,0,0-1.76-3.06,1.77,1.77,0,1,0,1.76,3.06m18.36-10.6a1.77,1.77,0,1,0-2.41-.65,1.76,1.76,0,0,0,2.41.65m18.36-10.6a1.77,1.77,0,1,0-2.41-.65,1.77,1.77,0,0,0,2.41.65M465.51,565a1.76,1.76,0,1,0-2.42-.64,1.77,1.77,0,0,0,2.42.64m18.35-10.6a1.76,1.76,0,1,0-2.41-.64,1.77,1.77,0,0,0,2.41.64m18.36-10.6a1.76,1.76,0,1,0-1.76-3.05,1.76,1.76,0,1,0,1.76,3.05m18.36-10.59a1.77,1.77,0,1,0-2.41-.65,1.78,1.78,0,0,0,2.41.65m18.36-10.6a1.77,1.77,0,1,0-1.76-3.06,1.77,1.77,0,0,0,1.76,3.06M557.3,512a1.78,1.78,0,0,0,.65-2.41,1.77,1.77,0,1,0-.65,2.41m18.35-10.6a1.76,1.76,0,1,0-2.41-.64,1.76,1.76,0,0,0,2.41.64M594,490.83a1.76,1.76,0,1,0-1.77-3.05,1.76,1.76,0,0,0,1.77,3.05m18.36-10.6a1.76,1.76,0,1,0-2.41-.64,1.75,1.75,0,0,0,2.41.64m18.36-10.59a1.77,1.77,0,1,0-2.42-.65,1.79,1.79,0,0,0,2.42.65M649.08,459a1.77,1.77,0,1,0-2.41-.65,1.76,1.76,0,0,0,2.41.65m18.36-10.6a1.77,1.77,0,1,0-2.41-.65,1.76,1.76,0,0,0,2.41.65m18.36-10.6a1.77,1.77,0,1,0-2.41-.64,1.76,1.76,0,0,0,2.41.64m18.36-10.6a1.77,1.77,0,1,0-2.41-.64,1.76,1.76,0,0,0,2.41.64m18.36-10.6a1.77,1.77,0,1,0-2.42-.64,1.76,1.76,0,0,0,2.42.64m18.35-10.59a1.77,1.77,0,1,0-2.41-.65,1.77,1.77,0,0,0,2.41.65m18.35-10.6a1.77,1.77,0,0,0-1.76-3.07,1.77,1.77,0,0,0,1.76,3.07m18.36-10.6a1.77,1.77,0,1,0-2.41-.65,1.77,1.77,0,0,0,2.41.65m18.36-10.6a1.77,1.77,0,1,0-2.41-.64,1.78,1.78,0,0,0,2.41.64m18.36-10.6a1.77,1.77,0,1,0-2.42-.64,1.77,1.77,0,0,0,2.42.64m18.36-10.6a1.77,1.77,0,1,0-2.42-.64,1.77,1.77,0,0,0,2.42.64M851,342.46a1.77,1.77,0,1,0-2.41-.65,1.77,1.77,0,0,0,2.41.65m18.36-10.6a1.77,1.77,0,1,0-2.41-.65,1.78,1.78,0,0,0,2.41.65m18.36-10.6a1.79,1.79,0,0,0,.65-2.42,1.77,1.77,0,1,0-.65,2.42m18.36-10.6a1.77,1.77,0,1,0-1.77-3.06,1.77,1.77,0,1,0,1.77,3.06m18.35-10.6a1.77,1.77,0,1,0-2.41-.65,1.77,1.77,0,0,0,2.41.65M1.42,885.35a4.94,4.94,0,0,0,1.82-6.75A5,5,0,0,0,0,876.25v9.64a4.83,4.83,0,0,0,1.42-.54m18.76-10.59A4.95,4.95,0,1,0,13.43,873a5,5,0,0,0,6.75,1.81M5,848.45a2.83,2.83,0,1,0-3.86-1,2.82,2.82,0,0,0,3.86,1m33.55,15.71a4.95,4.95,0,1,0-6.75-1.81,4.93,4.93,0,0,0,6.75,1.81M23.35,837.85a2.83,2.83,0,1,0-3.86-1,2.83,2.83,0,0,0,3.86,1M56.9,853.56a4.95,4.95,0,1,0-6.76-1.81,4.94,4.94,0,0,0,6.76,1.81M41.71,827.25a2.83,2.83,0,1,0-3.87-1,2.83,2.83,0,0,0,3.87,1M75.26,843a4.94,4.94,0,1,0-6.76-1.81A4.94,4.94,0,0,0,75.26,843M60.07,816.65a2.82,2.82,0,1,0-3.87-1,2.83,2.83,0,0,0,3.87,1m33.55,15.71a4.94,4.94,0,1,0-6.77-1.81,4.94,4.94,0,0,0,6.77,1.81m-15.2-26.31a2.82,2.82,0,1,0-3.86-1,2.83,2.83,0,0,0,3.86,1M112,821.76a4.94,4.94,0,1,0-6.76-1.8,4.93,4.93,0,0,0,6.76,1.8M96.78,795.45a2.82,2.82,0,1,0-3.86-1,2.83,2.83,0,0,0,3.86,1m33.54,15.72a4.95,4.95,0,1,0-6.75-1.81,4.94,4.94,0,0,0,6.75,1.81m-15.19-26.32a2.82,2.82,0,1,0-3.85-1,2.81,2.81,0,0,0,3.85,1m33.55,15.72a4.95,4.95,0,1,0-6.75-1.81,4.94,4.94,0,0,0,6.75,1.81m-15.19-26.32a2.82,2.82,0,1,0-3.86-1,2.81,2.81,0,0,0,3.86,1M167,790a4.95,4.95,0,1,0-6.76-1.81A5,5,0,0,0,167,790m-15.19-26.32a2.82,2.82,0,1,0-3.86-1,2.82,2.82,0,0,0,3.86,1m33.55,15.72a4.95,4.95,0,1,0-6.76-1.81,4.95,4.95,0,0,0,6.76,1.81m-15.19-26.31a2.82,2.82,0,1,0-3.86-1,2.82,2.82,0,0,0,3.86,1m33.55,15.71A4.95,4.95,0,1,0,197,767a4.95,4.95,0,0,0,6.76,1.81m-15.2-26.31a2.82,2.82,0,1,0-3.85-1,2.82,2.82,0,0,0,3.85,1m33.55,15.71a4.95,4.95,0,1,0-6.75-1.8,4.93,4.93,0,0,0,6.75,1.8m-15.19-26.31a2.82,2.82,0,1,0-3.86-1,2.82,2.82,0,0,0,3.86,1m33.55,15.72a4.95,4.95,0,1,0-6.75-1.81,5,5,0,0,0,6.75,1.81m-15.19-26.32a2.82,2.82,0,1,0-3.86-1,2.82,2.82,0,0,0,3.86,1M.84,912.62A7.26,7.26,0,0,0,0,911.45v9.4a7.06,7.06,0,0,0,.84-8.23m6.53-3.54A7.06,7.06,0,1,0,10,899.43a7.06,7.06,0,0,0-2.58,9.65m18.35-10.6a7.07,7.07,0,1,0,2.59-9.65,7.07,7.07,0,0,0-2.59,9.65m18.36-10.6a7.07,7.07,0,1,0,2.59-9.65,7.06,7.06,0,0,0-2.59,9.65m18.36-10.59A7.07,7.07,0,1,0,65,867.63a7.05,7.05,0,0,0-2.59,9.66m18.36-10.6A7.07,7.07,0,1,0,83.38,857a7.05,7.05,0,0,0-2.58,9.65m18.35-10.6a7.07,7.07,0,1,0,2.59-9.65,7.08,7.08,0,0,0-2.59,9.65m18.36-10.6a7.07,7.07,0,1,0,2.59-9.65,7.06,7.06,0,0,0-2.59,9.65m18.36-10.6a7.07,7.07,0,1,0,2.59-9.65,7.06,7.06,0,0,0-2.59,9.65m18.36-10.6a7.06,7.06,0,1,0,2.58-9.65,7.06,7.06,0,0,0-2.58,9.65m18.35-10.6a7.07,7.07,0,1,0,2.58-9.65,7.07,7.07,0,0,0-2.58,9.65m18.36-10.6a7.06,7.06,0,1,0,2.58-9.64,7.06,7.06,0,0,0-2.58,9.64m18.35-10.59a7.07,7.07,0,1,0,2.59-9.65,7.09,7.09,0,0,0-2.59,9.65m18.36-10.6a7.07,7.07,0,1,0,2.59-9.65,7.07,7.07,0,0,0-2.59,9.65M246,771.3a7.07,7.07,0,1,0,2.59-9.65A7.06,7.06,0,0,0,246,771.3M0,930.34v6.71a8.11,8.11,0,0,0,0-6.75m7.31-14.25a8.12,8.12,0,1,0,11.1,3,8.12,8.12,0,0,0-11.1-3m18.36-10.6a8.13,8.13,0,1,0,11.1,3,8.13,8.13,0,0,0-11.1-3M44,894.85a8.13,8.13,0,1,0,11.09,3,8.13,8.13,0,0,0-11.09-3m18.35-10.6a8.13,8.13,0,1,0,11.1,3,8.14,8.14,0,0,0-11.1-3m18.36-10.6a8.13,8.13,0,1,0,11.1,3,8.13,8.13,0,0,0-11.1-3m18.35-10.59a8.12,8.12,0,1,0,11.11,3,8.13,8.13,0,0,0-11.11-3m18.36-10.6a8.12,8.12,0,1,0,11.1,3,8.12,8.12,0,0,0-11.1-3m18.36-10.6a8.12,8.12,0,1,0,11.1,3,8.13,8.13,0,0,0-11.1-3m18.36-10.6a8.12,8.12,0,1,0,11.1,3,8.13,8.13,0,0,0-11.1-3m18.35-10.6a8.12,8.12,0,1,0,11.11,3,8.13,8.13,0,0,0-11.11-3m18.36-10.6A8.13,8.13,0,1,0,202,813a8.13,8.13,0,0,0-11.11-3m18.36-10.6a8.13,8.13,0,1,0,11.1,3,8.14,8.14,0,0,0-11.1-3m18.36-10.6a8.13,8.13,0,1,0,11.09,3,8.14,8.14,0,0,0-11.09-3M246,778.27a8.12,8.12,0,1,0,11.1,3,8.12,8.12,0,0,0-11.1-3m18.36-10.6a8.12,8.12,0,1,0,11.1,3,8.12,8.12,0,0,0-11.1-3M2,895.61a6,6,0,0,0-2-2.08V903.7a6,6,0,0,0,2-8.09m16.56-2.39a6,6,0,1,0-8.21-2.2,6,6,0,0,0,8.21,2.2M37,882.62a6,6,0,1,0-8.21-2.2,6,6,0,0,0,8.21,2.2M55.32,872a6,6,0,1,0-8.21-2.2,6,6,0,0,0,8.21,2.2m18.35-10.6a6,6,0,1,0-8.2-2.2,6,6,0,0,0,8.2,2.2M92,850.82a6,6,0,1,0-8.2-2.2,6,6,0,0,0,8.2,2.2m18.36-10.6a6,6,0,1,0-8.21-2.19,6,6,0,0,0,8.21,2.19m18.36-10.6a6,6,0,1,0-8.21-2.19,6,6,0,0,0,8.21,2.19M147.1,819a6,6,0,1,0-8.2-2.19,6,6,0,0,0,8.2,2.19m18.36-10.6a6,6,0,1,0-8.2-2.19,6,6,0,0,0,8.2,2.19m18.35-10.6a6,6,0,1,0-8.2-2.19,6,6,0,0,0,8.2,2.19m18.36-10.6A6,6,0,1,0,194,785a6,6,0,0,0,8.2,2.19m18.36-10.59a6,6,0,1,0-8.2-2.2,6,6,0,0,0,8.2,2.2M238.89,766a6,6,0,1,0-8.2-2.2,6,6,0,0,0,8.2,2.2m18.36-10.6a6,6,0,1,0-8.21-2.2,6,6,0,0,0,8.21,2.2M3,866.9a3.88,3.88,0,0,0-3-7.09v7.46a3.86,3.86,0,0,0,3-.37m18.76-10.6a3.89,3.89,0,1,0-5.31-1.42,3.88,3.88,0,0,0,5.31,1.42m18.36-10.59a3.89,3.89,0,1,0-5.31-1.43,3.89,3.89,0,0,0,5.31,1.43m18.35-10.6a3.89,3.89,0,1,0-5.31-1.43,3.88,3.88,0,0,0,5.31,1.43m18.36-10.6a3.89,3.89,0,1,0-5.31-1.43,3.9,3.9,0,0,0,5.31,1.43m18.35-10.6a3.88,3.88,0,1,0-5.3-1.43,3.89,3.89,0,0,0,5.3,1.43m18.36-10.6a3.89,3.89,0,1,0-5.3-1.42,3.88,3.88,0,0,0,5.3,1.42m18.36-10.6a3.89,3.89,0,1,0-5.31-1.42,3.89,3.89,0,0,0,5.31,1.42m18.36-10.59a3.89,3.89,0,1,0-5.31-1.43,3.9,3.9,0,0,0,5.31,1.43m18.35-10.6a3.89,3.89,0,1,0-5.3-1.43,3.89,3.89,0,0,0,5.3,1.43M187,760.92a3.89,3.89,0,1,0-5.31-1.43,3.89,3.89,0,0,0,5.31,1.43m18.36-10.6a3.89,3.89,0,1,0-5.31-1.43,3.88,3.88,0,0,0,5.31,1.43m18.36-10.6a3.89,3.89,0,1,0-5.31-1.42,3.89,3.89,0,0,0,5.31,1.42m18.35-10.6a3.88,3.88,0,1,0-5.31-1.42,3.89,3.89,0,0,0,5.31,1.42M6.58,830a1.77,1.77,0,1,0-2.42-.65,1.76,1.76,0,0,0,2.42.65m18.36-10.6a1.77,1.77,0,1,0-2.42-.64,1.76,1.76,0,0,0,2.42.64m18.35-10.6a1.77,1.77,0,1,0-1.77-3.06,1.77,1.77,0,0,0,1.77,3.06M61.64,798.2a1.77,1.77,0,0,0,.65-2.42,1.76,1.76,0,1,0-.65,2.42M80,787.6a1.77,1.77,0,1,0-2.41-.65,1.76,1.76,0,0,0,2.41.65M98.36,777a1.77,1.77,0,1,0-2.41-.65,1.77,1.77,0,0,0,2.41.65m18.36-10.6a1.77,1.77,0,1,0-1.77-3.06,1.77,1.77,0,1,0,1.77,3.06m18.35-10.6a1.77,1.77,0,0,0-1.76-3.06,1.79,1.79,0,0,0-.65,2.42,1.76,1.76,0,0,0,2.41.64m18.36-10.6a1.77,1.77,0,1,0-1.76-3.06,1.79,1.79,0,0,0-.65,2.42,1.76,1.76,0,0,0,2.41.64m18.36-10.59a1.79,1.79,0,0,0,.65-2.42,1.77,1.77,0,1,0-.65,2.42M190.15,724a1.79,1.79,0,0,0,.65-2.42,1.77,1.77,0,0,0-3.07,1.77,1.79,1.79,0,0,0,2.42.65m18.36-10.6a1.77,1.77,0,1,0-2.42-.65,1.79,1.79,0,0,0,2.42.65m18.35-10.6a1.77,1.77,0,1,0-2.41-.65,1.77,1.77,0,0,0,2.41.65" style="fill:#e6f6ff"/></svg>