<svg width="2000" xmlns="http://www.w3.org/2000/svg" xmlns:xlink="http://www.w3.org/1999/xlink" viewBox="0 0 1439.33 1538.65"><defs><clipPath id="a" transform="translate(0 -219.29)"><rect x="1.33" width="1429" height="1241" style="fill:none"/></clipPath></defs><title>Asset 1</title><g style="clip-path:url(#a)"><path d="M2.27,1166.53,0,1167.85v-4.95a9.42,9.42,0,0,0,.76,1.69,8.78,8.78,0,0,0,1.51,1.94m954.14-613a4.95,4.95,0,1,0-6.76-1.81,4.95,4.95,0,0,0,6.76,1.81m-15.19-26.31a2.82,2.82,0,1,0-3.86-1,2.84,2.84,0,0,0,3.86,1m33.55,15.71a4.95,4.95,0,1,0-6.76-1.81,4.95,4.95,0,0,0,6.76,1.81m-15.19-26.31a2.82,2.82,0,1,0-3.86-1,2.84,2.84,0,0,0,3.86,1m33.55,15.71a4.95,4.95,0,1,0-6.76-1.8,4.95,4.95,0,0,0,6.76,1.8M977.93,506a2.82,2.82,0,1,0-3.85-1,2.82,2.82,0,0,0,3.85,1m33.55,15.72a4.95,4.95,0,1,0-6.75-1.81,4.94,4.94,0,0,0,6.75,1.81m-15.19-26.32a2.82,2.82,0,1,0-3.86-1,2.83,2.83,0,0,0,3.86,1m33.55,15.72a4.95,4.95,0,1,0-6.75-1.81,5,5,0,0,0,6.75,1.81m-15.19-26.32a2.82,2.82,0,1,0-3.87-1,2.83,2.83,0,0,0,3.87,1m33.55,15.72a4.95,4.95,0,1,0-6.76-1.81,5,5,0,0,0,6.76,1.81M1033,474.21a2.82,2.82,0,1,0-3.87-1,2.82,2.82,0,0,0,3.87,1m33.55,15.72a4.95,4.95,0,1,0-6.76-1.81,5,5,0,0,0,6.76,1.81m-15.19-26.31a2.83,2.83,0,1,0-3.87-1,2.84,2.84,0,0,0,3.87,1m33.54,15.71a4.95,4.95,0,1,0-6.76-1.81,4.94,4.94,0,0,0,6.76,1.81M1069.72,453a2.82,2.82,0,1,0-3.86-1,2.83,2.83,0,0,0,3.86,1m33.55,15.71a4.95,4.95,0,1,0-6.76-1.8,4.94,4.94,0,0,0,6.76,1.8m-15.19-26.31a2.82,2.82,0,1,0-3.86-1,2.83,2.83,0,0,0,3.86,1m33.55,15.72a4.95,4.95,0,1,0-6.76-1.81,5,5,0,0,0,6.76,1.81m-15.2-26.32a2.82,2.82,0,1,0-3.86-1,2.82,2.82,0,0,0,3.86,1M1140,447.54a4.95,4.95,0,1,0-6.76-1.81,4.94,4.94,0,0,0,6.76,1.81m-15.19-26.32a2.82,2.82,0,1,0-3.86-1,2.83,2.83,0,0,0,3.86,1m33.55,15.72a4.95,4.95,0,1,0-6.76-1.81,4.94,4.94,0,0,0,6.76,1.81m-15.19-26.32a2.82,2.82,0,1,0-3.86-1,2.81,2.81,0,0,0,3.86,1m33.55,15.72a4.95,4.95,0,1,0-6.76-1.81,5,5,0,0,0,6.76,1.81M1161.5,400a2.83,2.83,0,1,0-3.85-1,2.83,2.83,0,0,0,3.85,1m33.55,15.71a4.95,4.95,0,1,0-6.75-1.81,5,5,0,0,0,6.75,1.81m-15.19-26.31a2.83,2.83,0,1,0-3.86-1,2.83,2.83,0,0,0,3.86,1m33.55,15.71a4.95,4.95,0,1,0-6.75-1.81,4.94,4.94,0,0,0,6.75,1.81m-15.19-26.31a2.83,2.83,0,1,0-3.86-1,2.82,2.82,0,0,0,3.86,1m33.55,15.72a4.95,4.95,0,1,0-6.76-1.82,5,5,0,0,0,6.76,1.82m-15.19-26.32a2.83,2.83,0,1,0-3.86-1,2.83,2.83,0,0,0,3.86,1M1250.13,384a4.95,4.95,0,1,0-6.76-1.82,5,5,0,0,0,6.76,1.82m-15.19-26.32a2.83,2.83,0,1,0-3.86-1,2.83,2.83,0,0,0,3.86,1m33.54,15.72a4.95,4.95,0,1,0-6.75-1.82,5,5,0,0,0,6.75,1.82M1253.29,347a2.83,2.83,0,1,0-3.85-1,2.82,2.82,0,0,0,3.85,1m33.55,15.72a4.95,4.95,0,1,0-6.75-1.82,4.94,4.94,0,0,0,6.75,1.82m-15.19-26.31a2.83,2.83,0,1,0-3.86-1,2.84,2.84,0,0,0,3.86,1m33.55,15.71a4.95,4.95,0,1,0-6.76-1.82,5,5,0,0,0,6.76,1.82M1290,325.84a2.83,2.83,0,1,0-3.86-1,2.85,2.85,0,0,0,3.86,1m33.55,15.71a4.95,4.95,0,1,0-6.76-1.81,5,5,0,0,0,6.76,1.81m-15.19-26.31a2.83,2.83,0,1,0-3.86-1,2.83,2.83,0,0,0,3.86,1M1341.92,331a4.94,4.94,0,1,0-6.76-1.81,5,5,0,0,0,6.76,1.81m-15.2-26.31a2.83,2.83,0,1,0-3.86-1,2.82,2.82,0,0,0,3.86,1m33.55,15.71a4.94,4.94,0,1,0-6.75-1.81,4.95,4.95,0,0,0,6.75,1.81M1345.08,294a2.83,2.83,0,1,0-3.86-1,2.83,2.83,0,0,0,3.86,1m33.55,15.71a4.94,4.94,0,1,0-6.75-1.81,4.94,4.94,0,0,0,6.75,1.81m-15.19-26.31a2.83,2.83,0,1,0-3.87-1,2.83,2.83,0,0,0,3.87,1M1397,299.15a4.94,4.94,0,1,0-6.76-1.81,4.95,4.95,0,0,0,6.76,1.81m-15.19-26.31a2.82,2.82,0,1,0-3.87-1,2.83,2.83,0,0,0,3.87,1m33.55,15.71a4.94,4.94,0,1,0-6.76-1.81,4.95,4.95,0,0,0,6.76,1.81m-15.19-26.3a2.83,2.83,0,1,0-3.87-1,2.85,2.85,0,0,0,3.87,1M1433.7,278a4.94,4.94,0,1,0-6.76-1.8,4.93,4.93,0,0,0,6.76,1.8m-15.19-26.3a2.83,2.83,0,1,0-3.86-1,2.83,2.83,0,0,0,3.86,1m18.36-10.6a2.83,2.83,0,1,0-3.86-1,2.83,2.83,0,0,0,3.86,1M962,577.24a7.06,7.06,0,1,0,2.58-9.65,7,7,0,0,0-2.58,9.65m18.36-10.59a7.06,7.06,0,1,0,2.58-9.65,7.06,7.06,0,0,0-2.58,9.65m18.35-10.6a7.07,7.07,0,1,0,2.59-9.65,7.08,7.08,0,0,0-2.59,9.65m18.36-10.6a7.07,7.07,0,1,0,2.59-9.65,7.06,7.06,0,0,0-2.59,9.65m18.36-10.6a7.07,7.07,0,1,0,2.59-9.65,7.06,7.06,0,0,0-2.59,9.65m18.36-10.6a7.07,7.07,0,1,0,2.58-9.65,7.06,7.06,0,0,0-2.58,9.65m18.35-10.6a7.07,7.07,0,1,0,2.59-9.65,7.07,7.07,0,0,0-2.59,9.65m18.36-10.59a7.07,7.07,0,1,0,2.59-9.65,7.07,7.07,0,0,0-2.59,9.65m18.36-10.6a7.07,7.07,0,1,0,2.59-9.65,7.06,7.06,0,0,0-2.59,9.65m18.36-10.6a7.07,7.07,0,1,0,2.58-9.65,7.06,7.06,0,0,0-2.58,9.65m18.36-10.6a7.06,7.06,0,1,0,2.58-9.65,7.06,7.06,0,0,0-2.58,9.65m18.35-10.6a7.07,7.07,0,1,0,2.59-9.65,7.07,7.07,0,0,0-2.59,9.65m18.36-10.6a7.06,7.06,0,1,0,2.59-9.65,7.06,7.06,0,0,0-2.59,9.65m18.35-10.59a7.07,7.07,0,1,0,2.59-9.65,7.08,7.08,0,0,0-2.59,9.65m18.36-10.6a7.07,7.07,0,1,0,2.59-9.65,7.08,7.08,0,0,0-2.59,9.65m18.36-10.6a7.07,7.07,0,1,0,2.58-9.65,7.06,7.06,0,0,0-2.58,9.65m18.36-10.6a7.06,7.06,0,1,0,2.58-9.65,7.06,7.06,0,0,0-2.58,9.65m18.35-10.6a7.07,7.07,0,1,0,2.59-9.65,7.08,7.08,0,0,0-2.59,9.65m18.36-10.6a7.07,7.07,0,1,0,2.59-9.65,7.06,7.06,0,0,0-2.59,9.65m18.36-10.59a7.07,7.07,0,1,0,2.58-9.66,7.07,7.07,0,0,0-2.58,9.66m18.36-10.6a7.06,7.06,0,1,0,2.58-9.66,7.06,7.06,0,0,0-2.58,9.66m18.35-10.6A7.07,7.07,0,1,0,1350,345a7.07,7.07,0,0,0-2.59,9.66m18.36-10.6a7.07,7.07,0,1,0,2.59-9.66,7.06,7.06,0,0,0-2.59,9.66m18.36-10.6a7.07,7.07,0,1,0,2.59-9.66,7.06,7.06,0,0,0-2.59,9.66m18.36-10.6a7.07,7.07,0,1,0,2.58-9.65,7.05,7.05,0,0,0-2.58,9.65m18.35-10.6a7.07,7.07,0,1,0,2.59-9.65,7.08,7.08,0,0,0-2.59,9.65m18.45-11.95v-4.81a7.11,7.11,0,0,0,0,5.25M.76,1164.35a8.84,8.84,0,0,0,1.51,2L0,1167.61V1758H1437.67V324a8.87,8.87,0,0,0-5,3.34,9.6,9.6,0,0,0-1.72,7.87,8.94,8.94,0,0,0,2.49,4.44l-2.75,1.59c-.82-3.16-3.37-6.21-8.56-6.78a7.91,7.91,0,0,0-3.68.4,9.36,9.36,0,0,0-4.87,13.45,8.78,8.78,0,0,0,1.51,1.94l-2.75,1.59a9.07,9.07,0,0,0-3.2-4.89,9.33,9.33,0,0,0-13.91,12,9.08,9.08,0,0,0,1.51,1.94l-2.75,1.59a9.12,9.12,0,0,0-.93-2.28,9.34,9.34,0,0,0-16.18,9.35,9.69,9.69,0,0,0,1.51,1.94l-2.74,1.59a9,9,0,0,0-.94-2.28A9.34,9.34,0,1,0,1360,382l-2.74,1.59a9.34,9.34,0,1,0-15.61,9l-2.74,1.59a8.86,8.86,0,0,0-5.31-6,9.23,9.23,0,0,0-11.8,13.1,9.08,9.08,0,0,0,1.51,1.94l-2.75,1.59c-.83-3.13-3.25-6.14-8.61-6.75a8,8,0,0,0-3.84.46,9.34,9.34,0,0,0-4.65,13.36,9,9,0,0,0,1.5,1.94l-2.75,1.59a9.07,9.07,0,0,0-3.2-4.89,9.33,9.33,0,0,0-13.9,12,9,9,0,0,0,1.5,1.94l-2.75,1.59a9,9,0,0,0-3.25-4.93,9.45,9.45,0,0,0-9.42-1.27,9.32,9.32,0,0,0-2.93,15.21l-2.74,1.59a10.13,10.13,0,0,0-.93-2.28,9.39,9.39,0,0,0-15.64-.91,7.85,7.85,0,0,0-1.58,3.6,9.38,9.38,0,0,0,2.54,8.6l-2.74,1.59a9.68,9.68,0,0,0-.93-2.28,9.34,9.34,0,1,0-14.68,11.29l-2.74,1.59c-.72-2.72-2.53-5.28-6.92-6.48a8.72,8.72,0,0,0-5.75.27,9.35,9.35,0,0,0-4.44,13.27,9.8,9.8,0,0,0,1.5,2l-2.74,1.58c-.76-2.86-2.75-5.62-7.67-6.56a8.67,8.67,0,0,0-5.55.62,9.33,9.33,0,0,0-3.88,13,9.11,9.11,0,0,0,1.5,1.95l-2.75,1.58c-.76-2.86-2.74-5.62-7.71-6.56a8.65,8.65,0,0,0-5.5.62,9.33,9.33,0,0,0-3.89,13,9.11,9.11,0,0,0,1.5,1.95l-2.75,1.58a9.33,9.33,0,1,0-17.1,7.07,9.63,9.63,0,0,0,1.5,1.95l-2.74,1.58a9.68,9.68,0,0,0-.93-2.28,9.34,9.34,0,0,0-16.18,9.35,9,9,0,0,0,1.51,1.94l-2.75,1.59a9.16,9.16,0,0,0-2-3.8A9.34,9.34,0,0,0,1120,517.84a9.34,9.34,0,0,0,1.51,1.94l-2.75,1.59c-.72-2.69-2.49-5.22-6.78-6.46a8.79,8.79,0,0,0-5.73.19,9.35,9.35,0,0,0-4.6,13.34,9.69,9.69,0,0,0,1.51,1.94L1100.4,532c-.77-2.87-2.77-5.64-7.78-6.56a8.6,8.6,0,0,0-5.48.64A9.33,9.33,0,0,0,1084.8,541l-2.74,1.58a9.06,9.06,0,0,0-3.27-4.93,9.33,9.33,0,0,0-13.84,12,9.3,9.3,0,0,0,1.5,1.94l-2.74,1.58a9.61,9.61,0,0,0-.93-2.27,9.34,9.34,0,1,0-14.67,11.29l-2.75,1.58a9.44,9.44,0,0,0-.93-2.27,9.34,9.34,0,1,0-16.18,9.34,9,9,0,0,0,1.51,1.94l-2.75,1.59a9.05,9.05,0,0,0-.93-2.27,9.34,9.34,0,1,0-14.67,11.28l-2.74,1.59a9.06,9.06,0,0,0-6.36-6.43,8.75,8.75,0,0,0-5.33-.14A9.37,9.37,0,0,0,991.55,592a9.69,9.69,0,0,0,1.51,1.94l-2.74,1.58c-.84-3.12-3.26-6.14-8.61-6.74a8,8,0,0,0-3.85.45,9.35,9.35,0,0,0-4.65,13.37,9.65,9.65,0,0,0,1.5,1.94L972,606.15c-.84-3.11-3.23-6.11-8.52-6.75a8,8,0,0,0-3.82.42,9.35,9.35,0,0,0-4.77,13.41,10,10,0,0,0,1.5,1.94l-2.74,1.58a9.12,9.12,0,0,0-3.24-4.91,9.43,9.43,0,0,0-9.42-1.29,9.33,9.33,0,0,0-4.44,13.28,9.57,9.57,0,0,0,1.5,1.94l-2.75,1.58a9.83,9.83,0,0,0-.92-2.27,9.4,9.4,0,0,0-15.66-.9,7.77,7.77,0,0,0-1.57,3.61,9.33,9.33,0,0,0,2.55,8.57L916.92,638a9,9,0,0,0-.92-2.27A9.34,9.34,0,1,0,899.82,645a9,9,0,0,0,1.5,1.94l-2.75,1.59c-.71-2.7-2.51-5.25-6.85-6.47a8.76,8.76,0,0,0-5.74.23,9.35,9.35,0,0,0-4.51,13.31,9,9,0,0,0,1.5,1.94l-2.74,1.59c-.77-2.86-2.76-5.63-7.69-6.56a8.67,8.67,0,0,0-5.55.62,9.35,9.35,0,0,0-3.87,13,9.65,9.65,0,0,0,1.5,1.94l-2.74,1.59c-.77-2.86-2.75-5.62-7.72-6.56a8.66,8.66,0,0,0-5.5.61,9.35,9.35,0,0,0-3.89,13,10,10,0,0,0,1.5,1.94l-2.74,1.59a9.12,9.12,0,0,0-.93-2.28,9.34,9.34,0,1,0-16.17,9.35,9.89,9.89,0,0,0,1.49,1.94l-2.74,1.58a9.05,9.05,0,0,0-.93-2.27A9.34,9.34,0,1,0,808.08,698a9.23,9.23,0,0,0,1.5,1.93l-2.75,1.59a9,9,0,0,0-2-3.78,9.33,9.33,0,0,0-15.08,10.85,9,9,0,0,0,1.5,1.94l-2.75,1.59c-.71-2.7-2.51-5.23-6.79-6.46a8.74,8.74,0,0,0-5.69.18,9.35,9.35,0,0,0-4.62,13.35,8.78,8.78,0,0,0,1.51,1.94l-2.75,1.59c-.77-2.86-2.75-5.62-7.71-6.56a8.65,8.65,0,0,0-5.5.61,9.34,9.34,0,0,0-3.9,13,8.78,8.78,0,0,0,1.51,1.94l-2.75,1.59c-.77-2.88-2.79-5.67-7.79-6.57a8.57,8.57,0,0,0-5.47.65,9.35,9.35,0,0,0-3.85,13,9.08,9.08,0,0,0,1.51,1.94l-2.74,1.59a9.08,9.08,0,0,0-3.26-4.93,9.33,9.33,0,0,0-13.86,12,9.69,9.69,0,0,0,1.51,1.94l-2.74,1.59a9.15,9.15,0,0,0-.94-2.28,9.34,9.34,0,1,0-14.67,11.29l-2.74,1.59a9.51,9.51,0,0,0-.93-2.28,9.34,9.34,0,1,0-16.18,9.34,9.11,9.11,0,0,0,1.5,1.95l-2.74,1.59a9,9,0,0,0-6.35-6.44,8.93,8.93,0,0,0-5.34-.14,9.36,9.36,0,0,0-5.42,13.64,9.15,9.15,0,0,0,1.51,2l-2.75,1.58c-.83-3.11-3.22-6.11-8.51-6.75a8,8,0,0,0-3.83.41A9.34,9.34,0,0,0,643,793.4a8.8,8.8,0,0,0,1.5,2l-2.75,1.58c-.83-3.1-3.21-6.09-8.46-6.75a7.82,7.82,0,0,0-3.81.39A9.34,9.34,0,0,0,624.6,804a9.11,9.11,0,0,0,1.5,2l-2.74,1.58a9.1,9.1,0,0,0-3.24-4.91,9.32,9.32,0,0,0-13.87,12,9.63,9.63,0,0,0,1.5,1.95L605,818.13a9.17,9.17,0,0,0-1.41-3,9.34,9.34,0,0,0-15.7,10.08,9.65,9.65,0,0,0,1.5,1.94l-2.74,1.59a9.68,9.68,0,0,0-.93-2.28,9.34,9.34,0,1,0-16.18,9.34,9.8,9.8,0,0,0,1.5,2l-2.74,1.59c-.72-2.71-2.51-5.25-6.85-6.47a8.75,8.75,0,0,0-5.74.23,9.34,9.34,0,0,0-4.51,13.3,9.11,9.11,0,0,0,1.5,2L550,849.92c-.77-2.87-2.77-5.64-7.73-6.56a8.63,8.63,0,0,0-5.49.62,9.34,9.34,0,0,0-3.88,13,9.11,9.11,0,0,0,1.5,2l-2.75,1.58c-.76-2.85-2.74-5.61-7.71-6.56a8.65,8.65,0,0,0-5.5.62,9.33,9.33,0,0,0-3.89,13,9.11,9.11,0,0,0,1.5,1.95l-2.75,1.58a8.74,8.74,0,0,0-2.59-4.34,9.58,9.58,0,0,0-11.95-.79,9.35,9.35,0,0,0-2.56,12.2,9.63,9.63,0,0,0,1.5,1.95l-2.74,1.58a9.44,9.44,0,0,0-.93-2.27,9.34,9.34,0,1,0-16.18,9.34,9.65,9.65,0,0,0,1.5,1.94l-2.74,1.59a9.16,9.16,0,0,0-2-3.8,9.34,9.34,0,0,0-15.08,10.87,10,10,0,0,0,1.5,1.94l-2.74,1.59c-.72-2.7-2.51-5.24-6.79-6.47a8.8,8.8,0,0,0-5.69.18,9.33,9.33,0,0,0-3.12,15.3l-2.75,1.58c-.77-2.87-2.77-5.65-7.79-6.56a8.6,8.6,0,0,0-5.48.65,9.32,9.32,0,0,0-2.33,14.93l-2.75,1.58c-.77-2.88-2.78-5.66-7.78-6.57a8.67,8.67,0,0,0-5.48.65,9.35,9.35,0,0,0-3.84,13,9,9,0,0,0,1.51,1.94l-2.76,1.58a9.17,9.17,0,0,0-.92-2.27,9.34,9.34,0,1,0-16.18,9.35,9.53,9.53,0,0,0,1.51,1.94l-2.75,1.58a9.05,9.05,0,0,0-.93-2.27,9.34,9.34,0,1,0-16.18,9.35,9.2,9.2,0,0,0,1.51,1.93l-2.75,1.59a9.05,9.05,0,0,0-.93-2.27,9.34,9.34,0,1,0-14.67,11.28l-2.74,1.59a8.87,8.87,0,0,0-5.33-6A9.24,9.24,0,0,0,331,973.58a9.69,9.69,0,0,0,1.51,1.94l-2.74,1.58c-.83-3.1-3.23-6.1-8.52-6.74a7.92,7.92,0,0,0-3.83.41,9.33,9.33,0,0,0-3.26,15.35l-2.74,1.58c-.83-3.09-3.2-6.07-8.42-6.75a7.82,7.82,0,0,0-3.81.38,9.35,9.35,0,0,0-4.88,13.45,9.65,9.65,0,0,0,1.5,1.94l-2.74,1.58a9,9,0,0,0-3.27-4.93,9.32,9.32,0,0,0-13.83,12,9.57,9.57,0,0,0,1.5,1.94l-2.75,1.58a9.55,9.55,0,0,0-1.4-3,9.34,9.34,0,0,0-15.7,10.09,9.23,9.23,0,0,0,1.5,1.93l-2.75,1.59a9.05,9.05,0,0,0-.93-2.27,9.34,9.34,0,1,0-16.17,9.34,9,9,0,0,0,1.5,1.94l-2.74,1.59a9,9,0,0,0-5.06-6,9.3,9.3,0,0,0-12.05,13.08,9,9,0,0,0,1.5,1.94l-2.74,1.59c-.77-2.86-2.76-5.62-7.68-6.56a8.61,8.61,0,0,0-5.55.62,9.32,9.32,0,0,0-2.38,15l-2.74,1.59c-.77-2.87-2.77-5.65-7.8-6.56a8.56,8.56,0,0,0-5.47.64,9.35,9.35,0,0,0-3.84,13,9.73,9.73,0,0,0,1.5,1.94L183,1061.9a8.76,8.76,0,0,0-4-5.4,9.52,9.52,0,0,0-8.93-.68,9.32,9.32,0,0,0-2.66,15.09l-2.75,1.59a9.34,9.34,0,1,0-15.6,9l-2.75,1.59a8.94,8.94,0,0,0-2-3.8,9.33,9.33,0,0,0-15.07,10.86,9,9,0,0,0,1.5,1.94l-2.74,1.6c-.72-2.7-2.51-5.23-6.77-6.47a8.76,8.76,0,0,0-5.7.18,9.34,9.34,0,0,0-4.64,13.35,9,9,0,0,0,1.5,1.94l-2.74,1.59c-.77-2.88-2.78-5.66-7.79-6.57a8.67,8.67,0,0,0-5.48.65,9.35,9.35,0,0,0-3.84,13A9.08,9.08,0,0,0,94,1113.3l-2.75,1.59c-.77-2.87-2.77-5.64-7.74-6.57A8.7,8.7,0,0,0,78,1109a9.3,9.3,0,0,0-2.37,15l-2.75,1.59a8.74,8.74,0,0,0-2.61-4.35,9.56,9.56,0,0,0-11.93-.78,9.32,9.32,0,0,0-1.06,14.14l-2.74,1.59a9.68,9.68,0,0,0-.93-2.28A9.34,9.34,0,1,0,39,1145.1l-2.74,1.59a9.68,9.68,0,0,0-.93-2.28,9.34,9.34,0,1,0-16.18,9.34,8.84,8.84,0,0,0,1.51,2l-2.75,1.59a8.8,8.8,0,0,0-5.34-6,9.37,9.37,0,0,0-7.82.06A9.27,9.27,0,0,0,0,1156.73v5.93a9.12,9.12,0,0,0,.76,1.69M980.25,573.61a8.13,8.13,0,1,0,11.1,3,8.13,8.13,0,0,0-11.1-3M998.61,563a8.13,8.13,0,1,0,11.1,3,8.14,8.14,0,0,0-11.1-3M1017,552.42a8.12,8.12,0,1,0,11.09,3,8.13,8.13,0,0,0-11.09-3m18.35-10.6a8.12,8.12,0,1,0,11.1,3,8.12,8.12,0,0,0-11.1-3m18.36-10.6a8.12,8.12,0,1,0,11.1,3,8.12,8.12,0,0,0-11.1-3m18.36-10.6a8.13,8.13,0,1,0,11.1,3,8.13,8.13,0,0,0-11.1-3M1090.4,510a8.13,8.13,0,1,0,11.09,3,8.14,8.14,0,0,0-11.09-3m18.35-10.6a8.13,8.13,0,1,0,11.1,3,8.14,8.14,0,0,0-11.1-3m18.36-10.59a8.12,8.12,0,1,0,11.1,3,8.13,8.13,0,0,0-11.1-3m18.35-10.6a8.12,8.12,0,1,0,11.11,3,8.13,8.13,0,0,0-11.11-3m18.36-10.6a8.12,8.12,0,1,0,11.11,3,8.13,8.13,0,0,0-11.11-3m18.36-10.6a8.13,8.13,0,1,0,11.1,3,8.13,8.13,0,0,0-11.1-3m18.36-10.6a8.13,8.13,0,1,0,11.1,3,8.14,8.14,0,0,0-11.1-3m18.35-10.6a8.13,8.13,0,1,0,11.11,3,8.15,8.15,0,0,0-11.11-3m18.36-10.59a8.12,8.12,0,1,0,11.1,3,8.13,8.13,0,0,0-11.1-3m18.36-10.6a8.12,8.12,0,1,0,11.1,3,8.11,8.11,0,0,0-11.1-3M1274,404a8.12,8.12,0,1,0,11.1,3,8.13,8.13,0,0,0-11.1-3m18.36-10.6a8.13,8.13,0,1,0,11.09,3,8.12,8.12,0,0,0-11.09-3m18.35-10.6a8.13,8.13,0,1,0,11.1,3,8.13,8.13,0,0,0-11.1-3m18.36-10.6a8.13,8.13,0,1,0,11.1,3,8.13,8.13,0,0,0-11.1-3m18.36-10.59a8.12,8.12,0,1,0,11.1,3,8.11,8.11,0,0,0-11.1-3m18.36-10.6a8.12,8.12,0,1,0,11.09,3,8.12,8.12,0,0,0-11.09-3m18.35-10.6a8.12,8.12,0,1,0,11.1,3,8.11,8.11,0,0,0-11.1-3m18.36-10.6a8.12,8.12,0,1,0,11.1,3,8.11,8.11,0,0,0-11.1-3m18.36-10.6a8.13,8.13,0,1,0,11.1,3,8.13,8.13,0,0,0-11.1-3m15.9.5a8.21,8.21,0,0,0,2.6,2.73V308.9a8.13,8.13,0,0,0-2.6,10.85M973.18,561.38a6,6,0,1,0-8.2-2.2,6,6,0,0,0,8.2,2.2m18.36-10.6a6,6,0,1,0-8.21-2.2,6,6,0,0,0,8.21,2.2m18.36-10.6a6,6,0,1,0-8.21-2.2,6,6,0,0,0,8.21,2.2m18.36-10.6a6,6,0,1,0-8.21-2.2,6,6,0,0,0,8.21,2.2m18.35-10.6a6,6,0,1,0-8.2-2.19,6,6,0,0,0,8.2,2.19m18.36-10.6a6,6,0,1,0-8.2-2.19,6,6,0,0,0,8.2,2.19m18.36-10.6a6,6,0,1,0-8.21-2.19,6,6,0,0,0,8.21,2.19m18.36-10.6a6,6,0,1,0-8.21-2.19,6,6,0,0,0,8.21,2.19m18.36-10.59a6,6,0,1,0-8.21-2.2,6,6,0,0,0,8.21,2.2M1138.4,466a6,6,0,1,0-8.2-2.2,6,6,0,0,0,8.2,2.2m18.35-10.6a6,6,0,1,0-8.2-2.2,6,6,0,0,0,8.2,2.2m18.36-10.6a6,6,0,1,0-8.2-2.2,6,6,0,0,0,8.2,2.2m18.36-10.6a6,6,0,1,0-8.2-2.2,6,6,0,0,0,8.2,2.2m18.36-10.6a6,6,0,1,0-8.2-2.19,6,6,0,0,0,8.2,2.19M1230.19,413a6,6,0,1,0-8.2-2.2,6,6,0,0,0,8.2,2.2m18.35-10.6a6,6,0,1,0-8.2-2.2,6,6,0,0,0,8.2,2.2m18.36-10.6a6,6,0,1,0-8.2-2.2,6,6,0,0,0,8.2,2.2m18.36-10.6a6,6,0,1,0-8.2-2.2,6,6,0,0,0,8.2,2.2m18.36-10.6a6,6,0,1,0-8.2-2.2,6,6,0,0,0,8.2,2.2M1322,360a6,6,0,1,0-8.2-2.19A6,6,0,0,0,1322,360m18.36-10.59a6,6,0,1,0-8.21-2.2,6,6,0,0,0,8.21,2.2m18.36-10.6a6,6,0,1,0-8.21-2.2,6,6,0,0,0,8.21,2.2m18.36-10.6a6,6,0,1,0-8.21-2.2,6,6,0,0,0,8.21,2.2m18.36-10.6a6,6,0,1,0-8.21-2.2,6,6,0,0,0,8.21,2.2m18.35-10.6a6,6,0,1,0-8.2-2.2,6,6,0,0,0,8.2,2.2m18.36-10.6a6,6,0,1,0-8.21-2.19,6,6,0,0,0,8.21,2.19M936,545.93a3.46,3.46,0,0,0,.7.26,4.28,4.28,0,0,0,.73.12h0a3.88,3.88,0,0,0,2.2-.51,3.84,3.84,0,0,0,1.54-1.66,4.22,4.22,0,0,0,.27-.7,4.63,4.63,0,0,0,.12-.73,3.85,3.85,0,0,0-.19-1.5,4.17,4.17,0,0,0-.32-.72,3.91,3.91,0,0,0-3.1-1.93,3.64,3.64,0,0,0-.74,0,3.76,3.76,0,0,0-1.47.49,3.88,3.88,0,0,0,.24,6.86m22-10.86a3.89,3.89,0,1,0-5.31-1.43,3.89,3.89,0,0,0,5.31,1.43m18.36-10.6A3.89,3.89,0,1,0,971,523a3.88,3.88,0,0,0,5.31,1.43m18.36-10.6a3.89,3.89,0,1,0-5.31-1.42,3.89,3.89,0,0,0,5.31,1.42m18.36-10.6a3.89,3.89,0,1,0-5.31-1.42,3.89,3.89,0,0,0,5.31,1.42m18.35-10.6a3.88,3.88,0,1,0-5.31-1.42,3.88,3.88,0,0,0,5.31,1.42m18.36-10.6a3.88,3.88,0,1,0-5.31-1.42,3.88,3.88,0,0,0,5.31,1.42m18.36-10.59a3.89,3.89,0,1,0-5.31-1.43,3.9,3.9,0,0,0,5.31,1.43m18.36-10.6a3.89,3.89,0,1,0-5.31-1.43,3.89,3.89,0,0,0,5.31,1.43m18.36-10.6a3.89,3.89,0,1,0-5.32-1.42,3.9,3.9,0,0,0,5.32,1.42m18.35-10.6a3.89,3.89,0,1,0-5.31-1.42,3.89,3.89,0,0,0,5.31,1.42m18.35-10.6a3.88,3.88,0,1,0-5.3-1.42,3.89,3.89,0,0,0,5.3,1.42m18.36-10.6a3.88,3.88,0,1,0-5.3-1.42,3.89,3.89,0,0,0,5.3,1.42m18.36-10.6a3.89,3.89,0,1,0-5.3-1.42,3.88,3.88,0,0,0,5.3,1.42m18.36-10.6a3.88,3.88,0,1,0-5.31-1.42,3.89,3.89,0,0,0,5.31,1.42m18.35-10.6a3.88,3.88,0,1,0-5.31-1.41,3.89,3.89,0,0,0,5.31,1.41m18.36-10.6a3.88,3.88,0,1,0-5.31-1.41,3.88,3.88,0,0,0,5.31,1.41m18.36-10.59a3.89,3.89,0,1,0-5.31-1.42,3.88,3.88,0,0,0,5.31,1.42m18.36-10.6a3.89,3.89,0,1,0-5.31-1.42,3.89,3.89,0,0,0,5.31,1.42m18.36-10.6a3.89,3.89,0,1,0-5.31-1.42,3.89,3.89,0,0,0,5.31,1.42m18.35-10.6a3.88,3.88,0,1,0-5.31-1.42,3.89,3.89,0,0,0,5.31,1.42m18.36-10.6a3.88,3.88,0,1,0-5.31-1.42,3.89,3.89,0,0,0,5.31,1.42m18.36-10.6a3.89,3.89,0,1,0-5.31-1.42,3.87,3.87,0,0,0,5.31,1.42m18.36-10.59a3.89,3.89,0,1,0-5.31-1.43,3.89,3.89,0,0,0,5.31,1.43m18.35-10.6a3.89,3.89,0,1,0-5.31-1.42,3.88,3.88,0,0,0,5.31,1.42m18.36-10.6a3.88,3.88,0,1,0-5.31-1.42,3.88,3.88,0,0,0,5.31,1.42m18.36-10.6a3.89,3.89,0,1,0-5.31-1.42,3.89,3.89,0,0,0,5.31,1.42m18.36-10.6a3.89,3.89,0,1,0-5.31-1.42,3.9,3.9,0,0,0,5.31,1.42M942.8,508.75a1.77,1.77,0,1,0-1.77-3.06,1.77,1.77,0,0,0,1.77,3.06m18.36-10.59a1.77,1.77,0,1,0-2.41-.65,1.77,1.77,0,0,0,2.41.65m18.36-10.6a1.77,1.77,0,1,0-2.42-.65,1.77,1.77,0,0,0,2.42.65M997.88,477a1.77,1.77,0,1,0-2.42-.65,1.76,1.76,0,0,0,2.42.65m18.35-10.6a1.77,1.77,0,1,0-2.41-.64,1.76,1.76,0,0,0,2.41.64m18.36-10.6a1.77,1.77,0,1,0-2.41-.64,1.76,1.76,0,0,0,2.41.64m18.36-10.6a1.77,1.77,0,1,0-2.41-.64,1.76,1.76,0,0,0,2.41.64m18.36-10.59a1.77,1.77,0,1,0-2.42-.65,1.77,1.77,0,0,0,2.42.65m18.35-10.6a1.77,1.77,0,1,0-2.41-.65,1.77,1.77,0,0,0,2.41.65m18.35-10.6a1.77,1.77,0,0,0-1.76-3.07,1.79,1.79,0,0,0-.65,2.42,1.76,1.76,0,0,0,2.41.65m18.36-10.6a1.77,1.77,0,1,0-2.41-.65,1.77,1.77,0,0,0,2.41.65m18.36-10.6a1.77,1.77,0,1,0-1.76-3.06,1.77,1.77,0,0,0,1.76,3.06m18.36-10.6a1.79,1.79,0,0,0,.65-2.42,1.77,1.77,0,1,0-.65,2.42m18.36-10.6a1.77,1.77,0,1,0-2.42-.65,1.78,1.78,0,0,0,2.42.65m18.35-10.6a1.77,1.77,0,1,0-2.41-.65,1.76,1.76,0,0,0,2.41.65m18.36-10.6a1.77,1.77,0,1,0-2.41-.65,1.77,1.77,0,0,0,2.41.65m18.36-10.6a1.76,1.76,0,1,0-2.41-.64,1.75,1.75,0,0,0,2.41.64m18.36-10.59a1.77,1.77,0,1,0-1.77-3.06,1.77,1.77,0,1,0,1.77,3.06m18.35-10.6a1.77,1.77,0,1,0-2.41-.65,1.77,1.77,0,0,0,2.41.65m18.36-10.6a1.76,1.76,0,0,0,.65-2.41,1.77,1.77,0,1,0-3.06,1.76,1.76,1.76,0,0,0,2.41.65m18.36-10.6a1.77,1.77,0,1,0-2.41-.65,1.76,1.76,0,0,0,2.41.65m18.36-10.6a1.77,1.77,0,1,0-2.41-.65,1.76,1.76,0,0,0,2.41.65m18.36-10.6a1.76,1.76,0,1,0-2.42-.64,1.76,1.76,0,0,0,2.42.64M1365,265a1.75,1.75,0,0,0,.65-2.41A1.77,1.77,0,1,0,1365,265m18.36-10.6a1.76,1.76,0,1,0-2.41-.64,1.75,1.75,0,0,0,2.41.64m18.36-10.59a1.77,1.77,0,1,0-2.41-.65,1.76,1.76,0,0,0,2.41.65m18.36-10.6a1.77,1.77,0,1,0-2.42-.65,1.79,1.79,0,0,0,2.42.65m18.88-10.6a2,2,0,0,0,.35-.28v-2.5a1.76,1.76,0,1,0-.35,2.78M258.83,956.27a4.95,4.95,0,1,0-6.76-1.81,5,5,0,0,0,6.76,1.81M243.64,930a2.83,2.83,0,1,0-3.86-1,2.83,2.83,0,0,0,3.86,1m33.55,15.71a4.94,4.94,0,1,0-6.76-1.81,5,5,0,0,0,6.76,1.81M262,919.36a2.83,2.83,0,1,0-3.86-1,2.84,2.84,0,0,0,3.86,1m33.54,15.71a4.94,4.94,0,1,0-6.75-1.81,4.94,4.94,0,0,0,6.75,1.81m-15.19-26.31a2.82,2.82,0,1,0-3.85-1,2.83,2.83,0,0,0,3.85,1m33.55,15.71a4.94,4.94,0,1,0-6.75-1.81,4.93,4.93,0,0,0,6.75,1.81m-15.19-26.31a2.82,2.82,0,1,0-3.86-1,2.83,2.83,0,0,0,3.86,1m33.55,15.71a4.94,4.94,0,1,0-6.76-1.8,4.95,4.95,0,0,0,6.76,1.8m-15.19-26.31a2.82,2.82,0,1,0-3.87-1,2.82,2.82,0,0,0,3.87,1m33.55,15.72a4.95,4.95,0,1,0-6.76-1.81,5,5,0,0,0,6.76,1.81M335.43,877a2.82,2.82,0,1,0-3.87-1,2.82,2.82,0,0,0,3.87,1M369,892.68a5,5,0,1,0-6.76-1.81,5,5,0,0,0,6.76,1.81m-15.2-26.32a2.82,2.82,0,1,0-3.86-1,2.81,2.81,0,0,0,3.86,1m33.55,15.72a4.95,4.95,0,1,0-6.75-1.81,4.94,4.94,0,0,0,6.75,1.81m-15.19-26.32a2.82,2.82,0,1,0-3.86-1,2.81,2.81,0,0,0,3.86,1m33.55,15.72a4.95,4.95,0,1,0-6.76-1.81,4.94,4.94,0,0,0,6.76,1.81M390.5,845.17a2.82,2.82,0,1,0-3.87-1,2.83,2.83,0,0,0,3.87,1m33.55,15.71a4.95,4.95,0,1,0-6.76-1.81,4.94,4.94,0,0,0,6.76,1.81m-15.19-26.31a2.82,2.82,0,1,0-3.87-1,2.83,2.83,0,0,0,3.87,1m33.55,15.71a4.95,4.95,0,1,0-6.77-1.8,4.94,4.94,0,0,0,6.77,1.8M427.21,824a2.82,2.82,0,1,0-3.86-1,2.83,2.83,0,0,0,3.86,1m33.55,15.72a4.95,4.95,0,1,0-6.76-1.81,4.94,4.94,0,0,0,6.76,1.81m-15.19-26.32a2.82,2.82,0,1,0-3.86-1,2.83,2.83,0,0,0,3.86,1m33.55,15.72a4.95,4.95,0,1,0-6.76-1.81,4.94,4.94,0,0,0,6.76,1.81m-15.2-26.32a2.82,2.82,0,1,0-3.85-1,2.82,2.82,0,0,0,3.85,1m33.55,15.72a4.95,4.95,0,1,0-6.75-1.81,4.94,4.94,0,0,0,6.75,1.81m-15.19-26.32a2.82,2.82,0,1,0-3.86-1,2.82,2.82,0,0,0,3.86,1m33.55,15.72a4.95,4.95,0,1,0-6.76-1.81,4.94,4.94,0,0,0,6.76,1.81m-15.19-26.31a2.83,2.83,0,1,0-3.86-1,2.84,2.84,0,0,0,3.86,1m33.55,15.71a4.95,4.95,0,1,0-6.76-1.81,4.95,4.95,0,0,0,6.76,1.81M519,771a2.83,2.83,0,1,0-3.86-1,2.83,2.83,0,0,0,3.86,1m33.55,15.71a4.95,4.95,0,1,0-6.76-1.81,4.95,4.95,0,0,0,6.76,1.81m-15.2-26.31a2.83,2.83,0,1,0-3.85-1,2.82,2.82,0,0,0,3.85,1M570.9,776.1a4.95,4.95,0,1,0-6.75-1.82,5,5,0,0,0,6.75,1.82m-15.19-26.32a2.83,2.83,0,1,0-3.86-1,2.82,2.82,0,0,0,3.86,1m33.55,15.72a4.95,4.95,0,1,0-6.75-1.82,4.94,4.94,0,0,0,6.75,1.82m-15.19-26.32a2.83,2.83,0,1,0-3.86-1,2.82,2.82,0,0,0,3.86,1m33.55,15.72a4.95,4.95,0,1,0-6.76-1.82,5,5,0,0,0,6.76,1.82m-15.19-26.32a2.83,2.83,0,1,0-3.86-1,2.83,2.83,0,0,0,3.86,1M626,744.3a4.95,4.95,0,1,0-6.76-1.81A5,5,0,0,0,626,744.3M610.79,718a2.83,2.83,0,1,0-3.86-1,2.84,2.84,0,0,0,3.86,1m33.54,15.71a4.95,4.95,0,1,0-6.75-1.81,5,5,0,0,0,6.75,1.81m-15.19-26.31a2.83,2.83,0,1,0-3.86-1,2.83,2.83,0,0,0,3.86,1m33.55,15.71a4.95,4.95,0,1,0-6.75-1.81,4.94,4.94,0,0,0,6.75,1.81M647.5,696.79a2.83,2.83,0,1,0-3.86-1,2.83,2.83,0,0,0,3.86,1m33.55,15.71a4.94,4.94,0,1,0-6.76-1.81,4.95,4.95,0,0,0,6.76,1.81m-15.19-26.31a2.83,2.83,0,1,0-3.87-1,2.83,2.83,0,0,0,3.87,1m33.55,15.71a4.94,4.94,0,1,0-6.76-1.81,4.95,4.95,0,0,0,6.76,1.81m-15.19-26.31a2.83,2.83,0,1,0-3.87-1,2.83,2.83,0,0,0,3.87,1m33.55,15.71a4.95,4.95,0,1,0-6.76-1.81,4.95,4.95,0,0,0,6.76,1.81M702.57,665a2.83,2.83,0,1,0-3.86-1,2.83,2.83,0,0,0,3.86,1m33.55,15.72a4.95,4.95,0,1,0-6.75-1.82,4.94,4.94,0,0,0,6.75,1.82M720.93,654.4a2.83,2.83,0,1,0-3.86-1,2.84,2.84,0,0,0,3.86,1m33.55,15.71a4.95,4.95,0,1,0-6.76-1.82,4.94,4.94,0,0,0,6.76,1.82M739.29,643.8a2.83,2.83,0,1,0-3.86-1,2.84,2.84,0,0,0,3.86,1m33.55,15.71a4.95,4.95,0,1,0-6.76-1.81,5,5,0,0,0,6.76,1.81m-15.2-26.31a2.83,2.83,0,1,0-3.86-1,2.82,2.82,0,0,0,3.86,1m33.56,15.71a4.94,4.94,0,1,0-6.77-1.81,4.95,4.95,0,0,0,6.77,1.81M776,622.6a2.83,2.83,0,1,0-3.86-1,2.83,2.83,0,0,0,3.86,1m33.55,15.71a4.94,4.94,0,1,0-6.76-1.81,4.93,4.93,0,0,0,6.76,1.81M794.36,612a2.83,2.83,0,1,0-3.86-1,2.82,2.82,0,0,0,3.86,1m33.55,15.71a4.94,4.94,0,1,0-6.76-1.81,4.93,4.93,0,0,0,6.76,1.81m-15.2-26.31a2.83,2.83,0,1,0-3.85-1,2.82,2.82,0,0,0,3.85,1m33.55,15.71a4.94,4.94,0,1,0-6.75-1.81,4.93,4.93,0,0,0,6.75,1.81M831.07,590.8a2.82,2.82,0,1,0-3.86-1,2.82,2.82,0,0,0,3.86,1m33.55,15.71a4.94,4.94,0,1,0-6.75-1.81,4.93,4.93,0,0,0,6.75,1.81M849.43,580.2a2.82,2.82,0,1,0-3.86-1,2.82,2.82,0,0,0,3.86,1M883,595.91a4.94,4.94,0,1,0-6.76-1.8,4.94,4.94,0,0,0,6.76,1.8M867.79,569.6a2.82,2.82,0,1,0-3.86-1,2.81,2.81,0,0,0,3.86,1m33.55,15.72a4.95,4.95,0,1,0-6.76-1.81,5,5,0,0,0,6.76,1.81M886.15,559a2.82,2.82,0,1,0-3.86-1,2.82,2.82,0,0,0,3.86,1m33.54,15.72a4.95,4.95,0,1,0-6.75-1.81,4.95,4.95,0,0,0,6.75,1.81M904.5,548.4a2.82,2.82,0,1,0-3.86-1,2.81,2.81,0,0,0,3.86,1m33.55,15.72a4.95,4.95,0,1,0-6.75-1.81,4.93,4.93,0,0,0,6.75,1.81M922.86,537.8a2.81,2.81,0,0,0,1-3.85,2.83,2.83,0,1,0-4.9,2.82,2.82,2.82,0,0,0,3.86,1M264.37,980a7.07,7.07,0,1,0,2.58-9.66,7.06,7.06,0,0,0-2.58,9.66m18.36-10.6a7.06,7.06,0,1,0,2.58-9.66,7.06,7.06,0,0,0-2.58,9.66m18.35-10.6a7.07,7.07,0,1,0,2.59-9.65,7.06,7.06,0,0,0-2.59,9.65m18.36-10.6a7.07,7.07,0,1,0,2.59-9.65,7.06,7.06,0,0,0-2.59,9.65m18.36-10.6a7.07,7.07,0,1,0,2.58-9.65,7.06,7.06,0,0,0-2.58,9.65M356.16,927a7.06,7.06,0,1,0,2.58-9.65,7.06,7.06,0,0,0-2.58,9.65m18.35-10.6a7.07,7.07,0,1,0,2.59-9.65,7.08,7.08,0,0,0-2.59,9.65m18.36-10.6a7.07,7.07,0,1,0,2.59-9.65,7.06,7.06,0,0,0-2.59,9.65m18.36-10.6a7.07,7.07,0,1,0,2.59-9.64,7.06,7.06,0,0,0-2.59,9.64m18.36-10.59a7.07,7.07,0,1,0,2.58-9.65,7.06,7.06,0,0,0-2.58,9.65M447.94,874a7.07,7.07,0,1,0,2.59-9.65,7.08,7.08,0,0,0-2.59,9.65m18.36-10.6a7.07,7.07,0,1,0,2.59-9.65,7.06,7.06,0,0,0-2.59,9.65m18.36-10.6a7.06,7.06,0,1,0,2.59-9.65,7.06,7.06,0,0,0-2.59,9.65M503,842.21a7.06,7.06,0,1,0,2.58-9.65,7.06,7.06,0,0,0-2.58,9.65m18.35-10.6A7.07,7.07,0,1,0,524,822a7.07,7.07,0,0,0-2.58,9.64M539.73,821a7.06,7.06,0,1,0,2.58-9.65,7.08,7.08,0,0,0-2.58,9.65m18.35-10.6a7.07,7.07,0,1,0,2.59-9.65,7.08,7.08,0,0,0-2.59,9.65m18.36-10.6a7.07,7.07,0,1,0,2.59-9.65,7.06,7.06,0,0,0-2.59,9.65m18.36-10.6a7.07,7.07,0,1,0,2.59-9.65,7.06,7.06,0,0,0-2.59,9.65m18.36-10.6a7.07,7.07,0,1,0,2.58-9.65,7.06,7.06,0,0,0-2.58,9.65M631.52,768a7.06,7.06,0,1,0,2.58-9.65,7.06,7.06,0,0,0-2.58,9.65m18.35-10.59a7.07,7.07,0,1,0,2.59-9.66,7.08,7.08,0,0,0-2.59,9.66m18.36-10.6a7.07,7.07,0,1,0,2.59-9.66,7.06,7.06,0,0,0-2.59,9.66m18.36-10.6a7.07,7.07,0,1,0,2.58-9.65,7.06,7.06,0,0,0-2.58,9.65M705,725.63a7.06,7.06,0,1,0,2.58-9.65,7.06,7.06,0,0,0-2.58,9.65M723.3,715a7.07,7.07,0,1,0,2.59-9.65A7.07,7.07,0,0,0,723.3,715m18.36-10.6a7.07,7.07,0,1,0,2.59-9.65,7.05,7.05,0,0,0-2.59,9.65M760,693.84a7.07,7.07,0,1,0,2.59-9.66,7.07,7.07,0,0,0-2.59,9.66m18.36-10.6a7.07,7.07,0,1,0,2.58-9.66,7.06,7.06,0,0,0-2.58,9.66m18.36-10.6a7.06,7.06,0,1,0,2.58-9.66,7.06,7.06,0,0,0-2.58,9.66M815.09,662a7.07,7.07,0,1,0,2.59-9.66,7.07,7.07,0,0,0-2.59,9.66m18.36-10.6a7.07,7.07,0,1,0,2.59-9.66,7.06,7.06,0,0,0-2.59,9.66m18.35-10.6a7.07,7.07,0,1,0,2.59-9.66,7.06,7.06,0,0,0-2.59,9.66m18.36-10.6a7.07,7.07,0,1,0,2.59-9.65,7.07,7.07,0,0,0-2.59,9.65m18.36-10.6A7.07,7.07,0,1,0,891.1,610a7.07,7.07,0,0,0-2.58,9.65M906.87,609a7.07,7.07,0,1,0,2.59-9.65,7.07,7.07,0,0,0-2.59,9.65m18.36-10.6a7.07,7.07,0,1,0,2.59-9.65,7.06,7.06,0,0,0-2.59,9.65m18.36-10.6a7.07,7.07,0,1,0,2.59-9.65,7.06,7.06,0,0,0-2.59,9.65M282.67,976.37a8.12,8.12,0,1,0,11.1,3,8.11,8.11,0,0,0-11.1-3M301,965.77a8.12,8.12,0,1,0,11.1,3,8.12,8.12,0,0,0-11.1-3m18.36-10.6a8.12,8.12,0,1,0,11.09,3,8.12,8.12,0,0,0-11.09-3m18.35-10.6a8.12,8.12,0,1,0,11.1,3,8.12,8.12,0,0,0-11.1-3M356.1,934a8.12,8.12,0,1,0,11.1,3,8.11,8.11,0,0,0-11.1-3m18.36-10.6a8.12,8.12,0,1,0,11.1,3,8.11,8.11,0,0,0-11.1-3m18.36-10.6a8.12,8.12,0,1,0,11.09,3,8.13,8.13,0,0,0-11.09-3m18.35-10.6a8.13,8.13,0,1,0,11.1,3,8.14,8.14,0,0,0-11.1-3m18.36-10.6a8.13,8.13,0,1,0,11.1,3,8.14,8.14,0,0,0-11.1-3M447.88,881A8.13,8.13,0,1,0,459,884a8.15,8.15,0,0,0-11.11-3m18.36-10.59a8.12,8.12,0,1,0,11.1,3,8.12,8.12,0,0,0-11.1-3m18.36-10.6a8.12,8.12,0,1,0,11.1,3,8.13,8.13,0,0,0-11.1-3M503,849.18a8.12,8.12,0,1,0,11.1,3,8.13,8.13,0,0,0-11.1-3m18.35-10.6a8.13,8.13,0,1,0,11.11,3,8.13,8.13,0,0,0-11.11-3M539.67,828a8.13,8.13,0,1,0,11.11,3,8.15,8.15,0,0,0-11.11-3M558,817.38a8.13,8.13,0,1,0,11.1,3,8.13,8.13,0,0,0-11.1-3m18.36-10.59a8.12,8.12,0,1,0,11.09,3,8.13,8.13,0,0,0-11.09-3m18.35-10.6a8.12,8.12,0,1,0,11.1,3,8.12,8.12,0,0,0-11.1-3m18.36-10.6a8.12,8.12,0,1,0,11.1,3,8.12,8.12,0,0,0-11.1-3M631.46,775a8.13,8.13,0,1,0,11.1,3,8.12,8.12,0,0,0-11.1-3m18.36-10.6a8.13,8.13,0,1,0,11.1,3,8.13,8.13,0,0,0-11.1-3m18.36-10.6a8.13,8.13,0,1,0,11.09,3,8.13,8.13,0,0,0-11.09-3m18.35-10.59a8.12,8.12,0,1,0,11.1,3,8.12,8.12,0,0,0-11.1-3m18.36-10.6a8.12,8.12,0,1,0,11.1,3,8.12,8.12,0,0,0-11.1-3M723.25,722a8.12,8.12,0,1,0,11.1,3,8.11,8.11,0,0,0-11.1-3m18.36-10.6a8.13,8.13,0,1,0,11.09,3,8.13,8.13,0,0,0-11.09-3M760,700.8a8.13,8.13,0,1,0,11.1,3,8.14,8.14,0,0,0-11.1-3m18.36-10.6a8.13,8.13,0,1,0,11.1,3,8.13,8.13,0,0,0-11.1-3m18.35-10.59a8.12,8.12,0,1,0,11.11,3,8.12,8.12,0,0,0-11.11-3M815,669a8.12,8.12,0,1,0,11.11,3A8.11,8.11,0,0,0,815,669m18.36-10.6a8.12,8.12,0,1,0,11.1,3,8.11,8.11,0,0,0-11.1-3m18.36-10.6a8.12,8.12,0,1,0,11.1,3,8.12,8.12,0,0,0-11.1-3m18.35-10.6a8.12,8.12,0,1,0,11.11,3,8.13,8.13,0,0,0-11.11-3m18.36-10.6a8.12,8.12,0,1,0,11.11,3,8.13,8.13,0,0,0-11.11-3M906.82,616a8.12,8.12,0,1,0,11.1,3,8.13,8.13,0,0,0-11.1-3m18.36-10.6a8.12,8.12,0,1,0,11.1,3,8.13,8.13,0,0,0-11.1-3m18.36-10.6a8.13,8.13,0,1,0,11.09,3,8.12,8.12,0,0,0-11.09-3M973,587.19a8.11,8.11,0,0,0-6.47-4.05c-.26,0-.52,0-.78,0a8.2,8.2,0,0,0-3.85,1.08c-.24.14-.47.29-.7.45s-.43.34-.63.52a8.08,8.08,0,0,0-2.71,5.51,8.26,8.26,0,0,0,0,1.57,8.06,8.06,0,0,0,1,3,7,7,0,0,0,.45.7,8,8,0,0,0,2.34,2.17c.22.13.45.26.68.37a7.81,7.81,0,0,0,1.46.55,8.85,8.85,0,0,0,1.54.26c.26,0,.52,0,.78,0s.53,0,.79-.06a8.13,8.13,0,0,0,7-6.73,7.36,7.36,0,0,0,.11-1.56,5.12,5.12,0,0,0-.06-.78,8,8,0,0,0-.65-2.32,5.75,5.75,0,0,0-.38-.74M275.6,964.13a6,6,0,1,0-8.2-2.2,6,6,0,0,0,8.2,2.2M294,953.53a6,6,0,1,0-8.21-2.2,6,6,0,0,0,8.21,2.2m18.36-10.6a6,6,0,1,0-8.21-2.2,6,6,0,0,0,8.21,2.2m18.36-10.6a6,6,0,1,0-8.21-2.19,6,6,0,0,0,8.21,2.19M349,921.73a6,6,0,1,0-8.2-2.19,6,6,0,0,0,8.2,2.19m18.36-10.6a6,6,0,1,0-8.21-2.19,6,6,0,0,0,8.21,2.19m18.36-10.6a6,6,0,1,0-8.21-2.19,6,6,0,0,0,8.21,2.19m18.36-10.6a6,6,0,1,0-8.21-2.19,6,6,0,0,0,8.21,2.19m18.35-10.59a6,6,0,1,0-8.2-2.2,6,6,0,0,0,8.2,2.2m18.36-10.6a6,6,0,1,0-8.2-2.2,6,6,0,0,0,8.2,2.2m18.36-10.6a6,6,0,1,0-8.21-2.2,6,6,0,0,0,8.21,2.2m18.36-10.6a6,6,0,1,0-8.21-2.2,6,6,0,0,0,8.21,2.2m18.35-10.6a6,6,0,1,0-8.2-2.2,6,6,0,0,0,8.2,2.2m18.36-10.6a6,6,0,1,0-8.2-2.2,6,6,0,0,0,8.2,2.2m18.35-10.6a6,6,0,1,0-8.2-2.2,6,6,0,0,0,8.2,2.2M551,805.14a6,6,0,1,0-8.2-2.19,6,6,0,0,0,8.2,2.19m18.36-10.59a6,6,0,1,0-8.2-2.2,6,6,0,0,0,8.2,2.2M587.68,784a6,6,0,1,0-8.2-2.2,6,6,0,0,0,8.2,2.2M606,773.35a6,6,0,1,0-8.2-2.2,6,6,0,0,0,8.2,2.2m18.35-10.6a6,6,0,1,0-8.2-2.2,6,6,0,0,0,8.2,2.2m18.36-10.6a6,6,0,1,0-8.21-2.2,6,6,0,0,0,8.21,2.2m18.36-10.59a6,6,0,1,0-8.21-2.2,6,6,0,0,0,8.21,2.2M679.47,731a6,6,0,1,0-8.21-2.2,6,6,0,0,0,8.21,2.2m18.35-10.6a6,6,0,1,0-8.2-2.2,6,6,0,0,0,8.2,2.2m18.36-10.6a6,6,0,1,0-8.2-2.2,6,6,0,0,0,8.2,2.2m18.36-10.6a6,6,0,1,0-8.21-2.2,6,6,0,0,0,8.21,2.2m18.36-10.6a6,6,0,1,0-8.21-2.2,6,6,0,0,0,8.21,2.2M771.26,678a6,6,0,1,0-8.21-2.2,6,6,0,0,0,8.21,2.2m18.35-10.6a6,6,0,1,0-8.2-2.2,6,6,0,0,0,8.2,2.2M808,656.77a6,6,0,1,0-8.21-2.2,6,6,0,0,0,8.21,2.2m18.35-10.6a6,6,0,1,0-8.2-2.2,6,6,0,0,0,8.2,2.2m18.36-10.6a6,6,0,1,0-8.2-2.2,6,6,0,0,0,8.2,2.2M863,625a6,6,0,1,0-8.2-2.2A6,6,0,0,0,863,625m18.36-10.6a6,6,0,1,0-8.21-2.19,6,6,0,0,0,8.21,2.19m18.35-10.59a6,6,0,1,0-8.2-2.2,6,6,0,0,0,8.2,2.2m18.36-10.6a6,6,0,1,0-8.2-2.2,6,6,0,0,0,8.2,2.2m18.36-10.6a6,6,0,1,0-8.2-2.2,6,6,0,0,0,8.2,2.2m12.72-10.4a6.11,6.11,0,0,0,5.64-.2,6,6,0,0,0,2.2-8.2,6,6,0,1,0-7.84,8.4M260.41,937.82a3.89,3.89,0,1,0-5.31-1.43,3.89,3.89,0,0,0,5.31,1.43m18.36-10.6a3.89,3.89,0,1,0-5.31-1.43,3.88,3.88,0,0,0,5.31,1.43m18.36-10.6a3.89,3.89,0,1,0-5.31-1.43,3.89,3.89,0,0,0,5.31,1.43M315.49,906a3.89,3.89,0,1,0-5.31-1.43,3.89,3.89,0,0,0,5.31,1.43m18.35-10.6a3.88,3.88,0,1,0-5.31-1.42,3.89,3.89,0,0,0,5.31,1.42m18.36-10.6a3.89,3.89,0,1,0-5.31-1.42,3.88,3.88,0,0,0,5.31,1.42m18.36-10.59a3.89,3.89,0,1,0-5.31-1.43,3.89,3.89,0,0,0,5.31,1.43m18.36-10.6a3.89,3.89,0,1,0-5.31-1.43,3.89,3.89,0,0,0,5.31,1.43M407.27,853A3.89,3.89,0,1,0,402,851.6a3.88,3.88,0,0,0,5.31,1.43m18.36-10.6a3.89,3.89,0,1,0-5.31-1.43,3.9,3.9,0,0,0,5.31,1.43M444,831.83a3.89,3.89,0,1,0-5.31-1.42,3.9,3.9,0,0,0,5.31,1.42m18.35-10.6a3.89,3.89,0,1,0-5.3-1.42,3.88,3.88,0,0,0,5.3,1.42m18.36-10.6a3.89,3.89,0,1,0-5.31-1.42,3.89,3.89,0,0,0,5.31,1.42M499.06,800a3.89,3.89,0,1,0-5.31-1.42,3.89,3.89,0,0,0,5.31,1.42m18.35-10.6a3.88,3.88,0,1,0-5.3-1.42,3.89,3.89,0,0,0,5.3,1.42m18.36-10.6a3.88,3.88,0,1,0-5.31-1.42,3.89,3.89,0,0,0,5.31,1.42m18.36-10.6a3.88,3.88,0,1,0-5.31-1.41,3.88,3.88,0,0,0,5.31,1.41m18.36-10.6a3.88,3.88,0,1,0-5.31-1.41,3.88,3.88,0,0,0,5.31,1.41M590.84,747a3.88,3.88,0,1,0-5.31-1.42,3.89,3.89,0,0,0,5.31,1.42m18.36-10.6a3.88,3.88,0,1,0-5.31-1.42,3.89,3.89,0,0,0,5.31,1.42m18.36-10.6a3.89,3.89,0,1,0-5.31-1.42,3.88,3.88,0,0,0,5.31,1.42m18.36-10.6a3.89,3.89,0,1,0-5.31-1.42,3.89,3.89,0,0,0,5.31,1.42m18.36-10.6a3.89,3.89,0,1,0-5.31-1.41,3.89,3.89,0,0,0,5.31,1.41M682.63,694a3.88,3.88,0,1,0-5.31-1.41,3.87,3.87,0,0,0,5.31,1.41M701,683.45a3.88,3.88,0,1,0-5.31-1.42,3.88,3.88,0,0,0,5.31,1.42m18.36-10.6a3.89,3.89,0,1,0-5.31-1.42,3.89,3.89,0,0,0,5.31,1.42m18.36-10.6a3.89,3.89,0,1,0-5.31-1.42,3.88,3.88,0,0,0,5.31,1.42m18.35-10.6a3.88,3.88,0,1,0-5.31-1.42,3.89,3.89,0,0,0,5.31,1.42m18.36-10.6a3.89,3.89,0,1,0-5.31-1.42,3.89,3.89,0,0,0,5.31,1.42m18.35-10.6a3.88,3.88,0,1,0-5.3-1.42,3.88,3.88,0,0,0,5.3,1.42m18.36-10.59a3.89,3.89,0,1,0-5.3-1.43,3.89,3.89,0,0,0,5.3,1.43m18.36-10.6a3.89,3.89,0,1,0-5.3-1.43,3.89,3.89,0,0,0,5.3,1.43m18.36-10.6a3.89,3.89,0,1,0-5.31-1.43,3.89,3.89,0,0,0,5.31,1.43m18.35-10.6a3.88,3.88,0,1,0-5.31-1.43,3.89,3.89,0,0,0,5.31,1.43m18.36-10.6a3.88,3.88,0,1,0-5.31-1.42,3.89,3.89,0,0,0,5.31,1.42m18.36-10.6a3.89,3.89,0,1,0-5.31-1.42,3.87,3.87,0,0,0,5.31,1.42m18.36-10.59a3.89,3.89,0,1,0-5.31-1.43,3.89,3.89,0,0,0,5.31,1.43M245.22,911.5a1.77,1.77,0,0,0-1.77-3.06,1.77,1.77,0,0,0,1.77,3.06m18.36-10.6a1.76,1.76,0,1,0-2.41-.64,1.76,1.76,0,0,0,2.41.64m18.36-10.59a1.76,1.76,0,0,0,.64-2.41,1.74,1.74,0,0,0-2.41-.65,1.76,1.76,0,0,0-.65,2.41,1.79,1.79,0,0,0,2.42.65m18.35-10.6a1.77,1.77,0,1,0-2.41-.65,1.76,1.76,0,0,0,2.41.65m18.36-10.6a1.77,1.77,0,1,0-2.41-.65,1.76,1.76,0,0,0,2.41.65M337,858.51a1.77,1.77,0,1,0-2.41-.65,1.76,1.76,0,0,0,2.41.65m18.36-10.6a1.77,1.77,0,1,0-2.42-.64,1.76,1.76,0,0,0,2.42.64m18.36-10.6a1.77,1.77,0,1,0-2.42-.64,1.76,1.76,0,0,0,2.42.64m18.35-10.6a1.77,1.77,0,1,0-1.77-3.06,1.77,1.77,0,0,0,1.77,3.06m18.35-10.59a1.77,1.77,0,0,0-1.76-3.07,1.77,1.77,0,0,0,1.76,3.07m18.36-10.6a1.77,1.77,0,1,0-2.41-.65,1.77,1.77,0,0,0,2.41.65m18.36-10.6a1.77,1.77,0,1,0-2.41-.65,1.76,1.76,0,0,0,2.41.65m18.36-10.6a1.77,1.77,0,1,0-2.42-.65,1.78,1.78,0,0,0,2.42.65m18.35-10.6a1.77,1.77,0,1,0-2.41-.65,1.76,1.76,0,0,0,2.41.65m18.36-10.6a1.77,1.77,0,0,0-1.76-3.06,1.77,1.77,0,0,0,1.76,3.06m18.36-10.6a1.77,1.77,0,1,0-2.41-.64,1.77,1.77,0,0,0,2.41.64m18.36-10.59a1.77,1.77,0,0,0-1.76-3.07,1.77,1.77,0,0,0,1.76,3.07m18.36-10.6a1.77,1.77,0,1,0-1.77-3.06,1.77,1.77,0,1,0,1.77,3.06m18.35-10.6a1.77,1.77,0,1,0-2.41-.65,1.77,1.77,0,0,0,2.41.65M594,710.13a1.77,1.77,0,1,0-2.41-.65,1.76,1.76,0,0,0,2.41.65m18.36-10.6a1.77,1.77,0,1,0-2.41-.65,1.76,1.76,0,0,0,2.41.65m18.36-10.6a1.77,1.77,0,1,0-2.42-.65,1.76,1.76,0,0,0,2.42.65m18.35-10.6a1.76,1.76,0,0,0,.65-2.41,1.78,1.78,0,0,0-2.42-.65,1.77,1.77,0,0,0,1.77,3.06m18.36-10.6a1.76,1.76,0,0,0,.65-2.41,1.79,1.79,0,0,0-2.42-.65,1.77,1.77,0,0,0,1.77,3.06m18.36-10.6a1.76,1.76,0,1,0-2.41-.64,1.76,1.76,0,0,0,2.41.64m18.36-10.6a1.76,1.76,0,1,0-2.41-.64,1.76,1.76,0,0,0,2.41.64m18.36-10.6a1.76,1.76,0,1,0-2.42-.64,1.75,1.75,0,0,0,2.42.64m18.35-10.59a1.77,1.77,0,1,0-2.41-.65,1.76,1.76,0,0,0,2.41.65m18.35-10.6a1.77,1.77,0,1,0-1.76-3.06,1.77,1.77,0,0,0,1.76,3.06m18.36-10.6a1.77,1.77,0,1,0-2.41-.65,1.76,1.76,0,0,0,2.41.65m18.36-10.6a1.76,1.76,0,1,0-2.41-.64,1.77,1.77,0,0,0,2.41.64m18.36-10.6a1.76,1.76,0,1,0-2.42-.64,1.77,1.77,0,0,0,2.42.64m18.36-10.6a1.76,1.76,0,1,0-2.42-.64,1.77,1.77,0,0,0,2.42.64M851,561.75a1.77,1.77,0,1,0-2.41-.65,1.76,1.76,0,0,0,2.41.65m18.36-10.6a1.77,1.77,0,1,0-2.41-.65,1.77,1.77,0,0,0,2.41.65m18.36-10.6a1.77,1.77,0,1,0-2.41-.65,1.78,1.78,0,0,0,2.41.65M906.09,530a1.77,1.77,0,1,0-2.42-.64,1.77,1.77,0,0,0,2.42.64m18.35-10.6a1.77,1.77,0,1,0-1.77-3.06,1.77,1.77,0,0,0,1.77,3.06m-923,585.3a5,5,0,0,0,1.82-6.76A5,5,0,0,0,0,1095.55v9.63a5.1,5.1,0,0,0,1.42-.53m18.76-10.59a4.95,4.95,0,1,0-6.75-1.82,5,5,0,0,0,6.75,1.82M5,1067.74a2.83,2.83,0,1,0-3.86-1,2.82,2.82,0,0,0,3.86,1m33.55,15.72a4.95,4.95,0,1,0-6.75-1.82,4.94,4.94,0,0,0,6.75,1.82m-15.19-26.32a2.83,2.83,0,1,0-3.86-1,2.83,2.83,0,0,0,3.86,1m33.55,15.72a4.95,4.95,0,1,0-6.76-1.82,5,5,0,0,0,6.76,1.82m-15.19-26.32a2.83,2.83,0,1,0-3.87-1,2.82,2.82,0,0,0,3.87,1m33.55,15.72a4.95,4.95,0,1,0-6.76-1.82,4.95,4.95,0,0,0,6.76,1.82M60.07,1036a2.83,2.83,0,1,0-3.87-1,2.84,2.84,0,0,0,3.87,1m33.55,15.71a4.95,4.95,0,1,0-6.77-1.82,4.95,4.95,0,0,0,6.77,1.82m-15.2-26.31a2.83,2.83,0,1,0-3.86-1,2.84,2.84,0,0,0,3.86,1M112,1041.06a4.95,4.95,0,1,0-6.76-1.81,4.94,4.94,0,0,0,6.76,1.81m-15.19-26.31a2.83,2.83,0,1,0-3.86-1,2.83,2.83,0,0,0,3.86,1m33.54,15.71a4.94,4.94,0,1,0-6.75-1.81,4.94,4.94,0,0,0,6.75,1.81m-15.19-26.31a2.83,2.83,0,1,0-3.85-1,2.82,2.82,0,0,0,3.85,1m33.55,15.71a4.94,4.94,0,1,0-6.75-1.81,4.93,4.93,0,0,0,6.75,1.81m-15.19-26.31a2.83,2.83,0,1,0-3.86-1,2.82,2.82,0,0,0,3.86,1M167,1009.26a4.94,4.94,0,1,0-6.76-1.81,4.94,4.94,0,0,0,6.76,1.81M151.85,983a2.83,2.83,0,1,0-3.86-1,2.83,2.83,0,0,0,3.86,1m33.55,15.71a4.94,4.94,0,1,0-6.76-1.81,4.94,4.94,0,0,0,6.76,1.81m-15.19-26.31a2.82,2.82,0,1,0-3.86-1,2.82,2.82,0,0,0,3.86,1m33.55,15.71a4.94,4.94,0,1,0-6.76-1.81,4.94,4.94,0,0,0,6.76,1.81m-15.2-26.31a2.82,2.82,0,1,0-3.85-1,2.82,2.82,0,0,0,3.85,1m33.55,15.71a4.94,4.94,0,1,0-6.75-1.8,4.93,4.93,0,0,0,6.75,1.8m-15.19-26.3a2.83,2.83,0,1,0-3.86-1,2.82,2.82,0,0,0,3.86,1m33.55,15.71a4.95,4.95,0,1,0-6.75-1.81,5,5,0,0,0,6.75,1.81m-15.19-26.31a2.83,2.83,0,1,0-3.86-1,2.82,2.82,0,0,0,3.86,1M.84,1131.91a7.74,7.74,0,0,0-.84-1.17v9.4a7.05,7.05,0,0,0,.84-8.23m6.53-3.53a7.06,7.06,0,1,0,2.58-9.65,7.06,7.06,0,0,0-2.58,9.65m18.35-10.6a7.07,7.07,0,1,0,2.59-9.65,7.07,7.07,0,0,0-2.59,9.65m18.36-10.6a7.07,7.07,0,1,0,2.59-9.65,7.06,7.06,0,0,0-2.59,9.65m18.36-10.6a7.07,7.07,0,1,0,2.59-9.65,7.05,7.05,0,0,0-2.59,9.65M80.8,1086a7.07,7.07,0,1,0,2.58-9.65A7.06,7.06,0,0,0,80.8,1086m18.35-10.59a7.07,7.07,0,1,0,2.59-9.66,7.08,7.08,0,0,0-2.59,9.66m18.36-10.6a7.07,7.07,0,1,0,2.59-9.66,7.06,7.06,0,0,0-2.59,9.66m18.36-10.6a7.07,7.07,0,1,0,2.59-9.66,7.06,7.06,0,0,0-2.59,9.66m18.36-10.6a7.06,7.06,0,1,0,2.58-9.66,7.05,7.05,0,0,0-2.58,9.66m18.35-10.6a7.07,7.07,0,1,0,2.58-9.66,7.07,7.07,0,0,0-2.58,9.66m18.36-10.6a7.06,7.06,0,1,0,2.58-9.65,7.05,7.05,0,0,0-2.58,9.65m18.35-10.6a7.07,7.07,0,1,0,2.59-9.65,7.08,7.08,0,0,0-2.59,9.65m18.36-10.6a7.07,7.07,0,1,0,2.59-9.65,7.06,7.06,0,0,0-2.59,9.65M246,990.59a7.07,7.07,0,1,0,2.59-9.65,7.06,7.06,0,0,0-2.59,9.65M0,1149.64v6.71a8.12,8.12,0,0,0,0-6.75m7.31-14.26a8.13,8.13,0,1,0,11.1,3,8.13,8.13,0,0,0-11.1-3m18.36-10.59a8.12,8.12,0,1,0,11.1,3,8.13,8.13,0,0,0-11.1-3M44,1114.15a8.12,8.12,0,1,0,11.09,3,8.13,8.13,0,0,0-11.09-3m18.35-10.6a8.12,8.12,0,1,0,11.1,3,8.13,8.13,0,0,0-11.1-3M80.74,1093a8.13,8.13,0,1,0,11.1,3,8.13,8.13,0,0,0-11.1-3m18.35-10.6a8.13,8.13,0,1,0,11.11,3,8.14,8.14,0,0,0-11.11-3m18.36-10.6a8.13,8.13,0,1,0,11.1,3,8.13,8.13,0,0,0-11.1-3m18.36-10.59a8.12,8.12,0,1,0,11.1,3,8.12,8.12,0,0,0-11.1-3m18.36-10.6a8.12,8.12,0,1,0,11.1,3,8.12,8.12,0,0,0-11.1-3m18.35-10.6a8.12,8.12,0,1,0,11.11,3,8.12,8.12,0,0,0-11.11-3m18.36-10.6a8.12,8.12,0,1,0,11.11,3,8.11,8.11,0,0,0-11.11-3m18.36-10.6a8.13,8.13,0,1,0,11.1,3,8.13,8.13,0,0,0-11.1-3m18.36-10.6a8.13,8.13,0,1,0,11.09,3,8.13,8.13,0,0,0-11.09-3M246,997.56a8.13,8.13,0,1,0,11.1,3,8.13,8.13,0,0,0-11.1-3M264.31,987a8.13,8.13,0,1,0,11.1,3,8.13,8.13,0,0,0-11.1-3M2,1114.9a6,6,0,0,0-2-2.07V1123a6,6,0,0,0,2-8.09m16.56-2.39a6,6,0,1,0-8.21-2.2,6,6,0,0,0,8.21,2.2M37,1101.91a6,6,0,1,0-8.21-2.2,6,6,0,0,0,8.21,2.2m18.36-10.6a6,6,0,1,0-8.21-2.2,6,6,0,0,0,8.21,2.2m18.35-10.6a6,6,0,1,0-8.2-2.2,6,6,0,0,0,8.2,2.2M92,1070.11a6,6,0,1,0-8.2-2.2,6,6,0,0,0,8.2,2.2m18.36-10.59a6,6,0,1,0-8.21-2.2,6,6,0,0,0,8.21,2.2m18.36-10.6a6,6,0,1,0-8.21-2.2,6,6,0,0,0,8.21,2.2m18.35-10.6a6,6,0,1,0-8.2-2.2,6,6,0,0,0,8.2,2.2m18.36-10.6a6,6,0,1,0-8.2-2.2,6,6,0,0,0,8.2,2.2m18.35-10.6a6,6,0,1,0-8.2-2.2,6,6,0,0,0,8.2,2.2m18.36-10.6a6,6,0,1,0-8.2-2.2,6,6,0,0,0,8.2,2.2m18.36-10.59a6,6,0,1,0-8.2-2.2,6,6,0,0,0,8.2,2.2m18.36-10.6a6,6,0,1,0-8.2-2.2,6,6,0,0,0,8.2,2.2m18.36-10.6a6,6,0,1,0-8.21-2.2,6,6,0,0,0,8.21,2.2M3,1086.19a3.87,3.87,0,0,0-3-7.08v7.45a3.86,3.86,0,0,0,3-.37m18.76-10.6a3.88,3.88,0,1,0-5.31-1.41,3.88,3.88,0,0,0,5.31,1.41M40.13,1065a3.89,3.89,0,1,0-5.31-1.42,3.89,3.89,0,0,0,5.31,1.42m18.35-10.6a3.88,3.88,0,1,0-5.31-1.42,3.88,3.88,0,0,0,5.31,1.42m18.36-10.6a3.88,3.88,0,1,0-5.31-1.42,3.9,3.9,0,0,0,5.31,1.42m18.35-10.6a3.88,3.88,0,1,0-5.3-1.42,3.89,3.89,0,0,0,5.3,1.42m18.36-10.6a3.89,3.89,0,1,0-5.3-1.42,3.87,3.87,0,0,0,5.3,1.42m18.36-10.6a3.89,3.89,0,1,0-5.31-1.42,3.88,3.88,0,0,0,5.31,1.42m18.36-10.59A3.89,3.89,0,1,0,145,1000a3.89,3.89,0,0,0,5.31,1.43m18.35-10.6a3.89,3.89,0,1,0-5.3-1.43,3.89,3.89,0,0,0,5.3,1.43M187,980.21a3.89,3.89,0,1,0-5.31-1.42,3.89,3.89,0,0,0,5.31,1.42m18.36-10.6a3.89,3.89,0,1,0-5.31-1.42,3.88,3.88,0,0,0,5.31,1.42M223.7,959a3.89,3.89,0,1,0-5.31-1.42A3.89,3.89,0,0,0,223.7,959m18.35-10.6a3.88,3.88,0,1,0-5.31-1.42,3.88,3.88,0,0,0,5.31,1.42M6.58,1049.28a1.76,1.76,0,1,0-1.77-3,1.76,1.76,0,1,0,1.77,3m18.36-10.6a1.76,1.76,0,1,0-2.42-.64,1.76,1.76,0,0,0,2.42.64m18.35-10.6a1.75,1.75,0,0,0,.65-2.41,1.77,1.77,0,0,0-3.06,1.77,1.74,1.74,0,0,0,2.41.64m18.35-10.59a1.77,1.77,0,1,0-2.4-.65,1.76,1.76,0,0,0,2.4.65M80,1006.89a1.77,1.77,0,1,0-2.41-.65,1.76,1.76,0,0,0,2.41.65m18.36-10.6a1.77,1.77,0,1,0-2.41-.65,1.77,1.77,0,0,0,2.41.65m18.36-10.6a1.76,1.76,0,1,0-2.42-.64,1.77,1.77,0,0,0,2.42.64m18.35-10.6a1.76,1.76,0,1,0-2.41-.64,1.76,1.76,0,0,0,2.41.64m18.36-10.6a1.76,1.76,0,1,0-1.76-3,1.76,1.76,0,1,0,1.76,3m18.36-10.59a1.77,1.77,0,1,0-2.41-.65,1.78,1.78,0,0,0,2.41.65m18.36-10.6a1.77,1.77,0,1,0-2.42-.65,1.78,1.78,0,0,0,2.42.65m18.36-10.6a1.77,1.77,0,1,0-2.42-.65,1.78,1.78,0,0,0,2.42.65m18.35-10.6a1.77,1.77,0,1,0-2.41-.65,1.76,1.76,0,0,0,2.41.65" transform="translate(0 -219.29)" style="fill:#E6F6FF"/></g></svg>